<svg width="20" height="20" viewBox="0 0 20 20" fill="none" xmlns="http://www.w3.org/2000/svg">
<path fill-rule="evenodd" clip-rule="evenodd" d="M13.2993 9.64224C13.2993 7.91121 11.8874 6.49938 10.1564 6.49938C8.42537 6.49938 7.01354 7.91121 7.01354 9.64224C7.01354 11.3733 8.42537 12.7851 10.1564 12.7851C11.8874 12.7851 13.2993 11.3733 13.2993 9.64224ZM14.9935 9.64224C14.9935 12.3186 12.8327 14.4793 10.1564 14.4793C7.48006 14.4793 5.31934 12.3186 5.31934 9.64224C5.31934 6.9659 7.48006 4.80518 10.1564 4.80518C12.8327 4.80518 14.9935 6.9659 14.9935 9.64224ZM16.3194 4.60875C16.3194 5.23487 15.816 5.73822 15.1899 5.73822C14.5638 5.73822 14.0604 5.23487 14.0604 4.60875C14.0604 3.98264 14.5638 3.47929 15.1899 3.47929C15.816 3.47929 16.3194 3.98264 16.3194 4.60875ZM10.1564 1.90786C8.7814 1.90786 5.83497 1.79737 4.59501 2.28844C4.16532 2.46031 3.84613 2.66902 3.51465 3.00049C3.18318 3.33197 2.97447 3.65116 2.8026 4.08085C2.31153 5.32081 2.42202 8.26724 2.42202 9.64224C2.42202 11.0172 2.31153 13.9637 2.8026 15.2036C2.97447 15.6333 3.18318 15.9525 3.51465 16.284C3.84613 16.6155 4.16532 16.8242 4.59501 16.996C5.83497 17.4871 8.7814 17.3766 10.1564 17.3766C11.5314 17.3766 14.4778 17.4871 15.7178 16.996C16.1475 16.8242 16.4667 16.6155 16.7981 16.284C17.1296 15.9525 17.3383 15.6333 17.5102 15.2036C18.0013 13.9637 17.8908 11.0172 17.8908 9.64224C17.8908 8.26724 18.0013 5.32081 17.5102 4.08085C17.3383 3.65116 17.1296 3.33197 16.7981 3.00049C16.4667 2.66902 16.1475 2.46031 15.7178 2.28844C14.4778 1.79737 11.5314 1.90786 10.1564 1.90786ZM19.585 9.64224C19.585 10.9436 19.5973 12.2326 19.5236 13.534C19.4499 15.044 19.1062 16.3822 18.0013 17.4871C16.8964 18.592 15.5582 18.9358 14.0481 19.0094C12.7468 19.0831 11.4577 19.0708 10.1564 19.0708C8.85506 19.0708 7.566 19.0831 6.26466 19.0094C4.75461 18.9358 3.41644 18.592 2.31153 17.4871C1.20661 16.3822 0.862863 15.044 0.789202 13.534C0.715541 12.2326 0.727818 10.9436 0.727818 9.64224C0.727818 8.3409 0.715541 7.05184 0.789202 5.75049C0.862863 4.24045 1.20661 2.90228 2.31153 1.79737C3.41644 0.692453 4.75461 0.348703 6.26466 0.275042C7.566 0.201381 8.85506 0.213658 10.1564 0.213658C11.4577 0.213658 12.7468 0.201381 14.0481 0.275042C15.5582 0.348703 16.8964 0.692453 18.0013 1.79737C19.1062 2.90228 19.4499 4.24045 19.5236 5.75049C19.5973 7.05184 19.585 8.3409 19.585 9.64224Z" fill="#C76753"/>
</svg>
