<svg width="258" height="51" viewBox="0 0 258 51" fill="none" xmlns="http://www.w3.org/2000/svg">
<path d="M0.511963 19.9376H24.7229C18.9533 28.4252 12.2989 40.1823 8.26371 50.7175L29.7492 50.6844C33.7843 40.1823 40.4034 28.4252 46.173 19.9706V0.749756H0.511963V19.9376Z" fill="#E4B14A"/>
<path d="M161.777 0.815674L150.627 27.6655H149.919L138.769 0.815674H112.258V50.7834H132.823V31.8927H133.177L141.035 50.7834H159.547L167.369 31.8927H167.723V50.7834H188.324V0.815674H161.777Z" fill="#CC6C51"/>
<path d="M63.3047 0.815674L49.3586 50.7834H69.9238L70.8087 47.6129H80.8612L81.7461 50.7834H102.311L88.4006 0.815674H63.3047ZM73.8882 36.6154L75.6226 30.4066H76.0827L77.8171 36.6154H73.8882Z" fill="#F59A8F"/>
<path d="M257.913 16.1066C257.806 15.8755 257.523 15.7764 257.311 15.8755C257.169 15.9085 257.098 16.0076 257.028 16.1397C256.922 16.3708 256.815 16.602 256.709 16.8332C256.603 17.0314 256.532 17.2295 256.391 17.4277C256.178 17.7579 255.966 18.0551 255.718 18.3854C255.364 18.8478 254.975 19.2441 254.408 19.5083C254.302 19.5743 254.196 19.6073 254.09 19.6073C253.877 19.6404 253.736 19.5413 253.63 19.4092C253.559 19.2771 253.488 19.145 253.488 19.0129C253.488 18.8808 253.488 18.7487 253.488 18.6166C253.488 18.3524 253.488 18.0882 253.523 17.857C253.559 17.5928 253.63 17.2956 253.7 17.0314C253.807 16.6681 253.877 16.3048 254.019 15.9415C254.125 15.6443 254.196 15.314 254.267 15.0168C254.408 14.5544 254.621 14.4554 255.01 14.4223C255.258 14.3893 255.506 14.3563 255.789 14.3233C255.966 14.2902 256.107 14.2572 256.284 14.2242C256.391 14.1912 256.497 14.1251 256.532 14.026C256.709 13.6958 256.532 13.3655 256.107 13.3655C256.001 13.3655 255.86 13.3655 255.753 13.3985C255.647 13.3985 255.506 13.4316 255.399 13.4316C255.329 13.4316 255.293 13.4316 255.223 13.4316C255.01 13.4316 254.904 13.3325 254.939 13.1674C254.939 13.0353 255.01 12.9031 255.046 12.8041C255.081 12.738 255.116 12.672 255.116 12.6059C255.258 12.1766 255.435 11.7803 255.612 11.384C255.683 11.2188 255.718 11.0207 255.718 10.8556C255.683 10.5914 255.47 10.4262 255.152 10.4593C255.01 10.4923 254.869 10.5583 254.762 10.6574C254.621 10.8225 254.515 11.0537 254.444 11.2519C254.231 11.8133 254.019 12.3747 253.842 12.9362C253.807 13.0683 253.736 13.2004 253.665 13.3325C253.559 13.5306 253.417 13.6958 253.134 13.6958C253.028 13.6958 252.922 13.7288 252.816 13.7618C252.639 13.7948 252.497 13.8609 252.32 13.8939C252.143 13.96 252.072 14.1581 252.143 14.2902C252.178 14.3893 252.249 14.4884 252.391 14.5214C252.532 14.5875 252.674 14.6205 252.816 14.6535C253.063 14.6865 253.134 14.8186 253.099 15.0168C253.099 15.0168 253.099 15.0168 253.099 15.0498C253.063 15.2149 252.993 15.3801 252.957 15.5452C252.922 15.6773 252.886 15.7764 252.851 15.9085C252.745 16.4039 252.603 16.8662 252.391 17.3286C252.249 17.6258 252.108 17.923 251.895 18.1872C251.824 18.3193 251.718 18.4184 251.612 18.5505C251.435 18.7487 251.258 18.9138 251.046 19.112C250.94 19.211 250.833 19.2771 250.692 19.3762C250.55 19.4422 250.444 19.4092 250.409 19.2441C250.373 19.178 250.373 19.112 250.373 19.0459C250.302 18.4515 250.161 17.89 249.948 17.3616C249.878 17.1965 249.842 17.0644 249.771 16.8993C249.701 16.7011 249.63 16.5029 249.559 16.3048C249.418 15.9415 249.311 15.5782 249.382 15.1489C249.453 14.8517 249.311 14.6205 248.993 14.4884C248.816 14.3893 248.426 14.4223 248.32 14.5875C248.249 14.6865 248.143 14.7856 248.072 14.9177C247.896 15.281 247.754 15.6443 247.612 16.0076C247.506 16.3048 247.365 16.602 247.258 16.8993C247.152 17.1635 247.081 17.4607 246.904 17.7249C246.904 17.7249 246.904 17.7249 246.904 17.7579C246.798 18.0221 246.727 18.2863 246.621 18.5505C246.55 18.7157 246.48 18.9138 246.373 19.0789C246.232 19.4092 246.055 19.7064 245.807 19.9706C245.701 20.1027 245.524 20.2018 245.382 20.3339C245.312 20.4 245.205 20.433 245.064 20.433C244.922 20.433 244.816 20.4 244.745 20.3009C244.568 20.0697 244.497 19.8385 244.533 19.5743C244.533 19.5083 244.533 19.4092 244.568 19.3431C244.568 19.0129 244.604 18.6826 244.674 18.3524C244.781 17.857 244.958 17.4277 245.099 16.9323C245.135 16.8002 245.17 16.635 245.17 16.4699C245.17 16.4039 245.17 16.3048 245.135 16.2057C245.064 15.9745 244.816 15.8755 244.568 15.9415C244.533 15.9415 244.462 15.9745 244.427 16.0076C244.214 16.1066 243.967 16.1727 243.719 16.1397C243.683 16.1397 243.613 16.1397 243.577 16.1397C243.046 16.1727 242.515 16.2718 242.055 16.5029C241.737 16.6681 241.489 16.8662 241.206 17.0974C240.887 17.3616 240.639 17.6588 240.392 17.9891C240.215 18.2203 240.073 18.4515 239.931 18.6826C239.825 18.9138 239.684 19.178 239.542 19.3762C239.259 19.7395 238.905 20.0367 238.409 20.1688C238.162 20.2348 237.878 20.2348 237.631 20.1358C237.277 19.9706 237.064 19.7395 237.029 19.3762C237.029 19.2771 237.029 19.178 237.029 19.112C237.029 18.8808 237.1 18.6166 237.17 18.3854C237.277 18.0221 237.383 17.6588 237.489 17.2956C237.595 16.9983 237.666 16.6681 237.772 16.3708C237.878 16.1066 237.949 15.8424 238.02 15.5782C238.162 15.1159 238.339 14.6535 238.516 14.2242C238.622 13.9269 238.763 13.6297 238.905 13.3325C239.046 13.0022 239.188 12.6389 239.365 12.3087C239.436 12.1436 239.471 12.0115 239.507 11.8463C239.507 11.7473 239.507 11.6482 239.471 11.5161C239.4 11.2519 239.011 11.0868 238.728 11.2849C238.586 11.384 238.48 11.5161 238.409 11.6482C238.268 11.9454 238.091 12.2426 237.985 12.5729C237.808 13.0022 237.631 13.4316 237.489 13.8939C237.347 14.2572 237.206 14.6535 237.064 15.0168C236.958 15.314 236.887 15.6113 236.781 15.8755C236.64 16.3048 236.498 16.7341 236.392 17.1635C236.356 17.2956 236.321 17.3946 236.286 17.5267C236.25 17.6919 236.215 17.824 236.179 17.9891C236.109 18.3193 236.002 18.6166 235.755 18.8808C235.613 19.0129 235.542 19.178 235.578 19.3762C235.578 19.4422 235.578 19.4752 235.578 19.5413C235.613 19.7395 235.542 19.9376 235.436 20.1358C235.365 20.2679 235.294 20.4 235.224 20.5651C235.011 20.9614 234.799 21.3577 234.48 21.721C234.268 21.9522 234.02 22.2164 233.666 22.3485C233.348 22.5136 232.994 22.5466 232.64 22.4475C232.427 22.3815 232.215 22.2494 232.073 22.1173C232.038 22.0843 232.003 22.0182 231.967 21.9522C231.932 21.8531 231.967 21.754 232.073 21.688C232.144 21.6549 232.215 21.6219 232.25 21.5889C232.534 21.4237 232.817 21.2586 233.065 21.0605C233.418 20.7963 233.702 20.499 233.949 20.1688C234.197 19.8385 234.374 19.4752 234.445 19.112C234.48 18.8147 234.48 18.5175 234.339 18.2203C234.162 17.857 233.843 17.6258 233.383 17.5928C233.206 17.5928 233.029 17.6258 232.888 17.6588C232.675 17.7249 232.498 17.824 232.286 17.923C231.967 18.0882 231.684 18.3193 231.436 18.5835C231.189 18.8147 230.976 19.0789 230.728 19.3431C230.693 19.3762 230.658 19.4092 230.622 19.4422C230.516 19.5083 230.41 19.4752 230.41 19.3762C230.41 19.3431 230.41 19.2771 230.41 19.2441C230.445 19.0789 230.481 18.9468 230.587 18.8147C230.764 18.6166 230.941 18.4184 231.118 18.2203C231.259 18.0551 231.436 17.89 231.613 17.7249C231.896 17.4277 232.18 17.0974 232.463 16.7671C232.746 16.4369 233.029 16.1066 233.241 15.7103C233.383 15.4792 233.525 15.248 233.666 15.0168C233.808 14.7196 233.985 14.4554 234.02 14.1251C234.056 13.993 234.091 13.8279 234.126 13.6958C234.197 13.3325 234.126 13.0022 233.843 12.705C233.666 12.5399 233.489 12.4078 233.241 12.4078C232.958 12.4078 232.711 12.4408 232.463 12.5729C232.215 12.705 232.003 12.9032 231.826 13.1013C231.578 13.3985 231.366 13.7288 231.189 14.0591C230.941 14.4554 230.764 14.8847 230.622 15.314C230.481 15.6443 230.374 16.0076 230.268 16.3378C230.162 16.635 230.056 16.9653 229.95 17.2625C229.843 17.5598 229.773 17.824 229.667 18.1212C229.631 18.2533 229.56 18.3524 229.454 18.4514C229.419 18.4845 229.383 18.5175 229.348 18.5505C229.171 18.7817 229.065 18.8147 229.242 19.178C229.277 19.2771 229.313 19.3762 229.277 19.4752C229.242 19.7394 229.206 20.0036 229.065 20.2348C229.029 20.2679 229.029 20.3009 229.029 20.3339C228.994 20.499 228.959 20.6311 228.888 20.7963C228.711 21.2586 228.534 21.721 228.251 22.1503C228.109 22.4145 227.897 22.6127 227.649 22.8108C227.543 22.9099 227.401 22.9429 227.26 22.976C227.118 22.976 227.012 22.9429 226.941 22.8439C226.835 22.6787 226.729 22.5136 226.729 22.3154C226.729 22.0512 226.729 21.8201 226.729 21.5558C226.764 21.1926 226.835 20.8623 226.906 20.499C226.906 20.433 226.941 20.4 226.941 20.3339C227.083 20.0367 227.153 19.7064 227.26 19.3762C227.295 19.211 227.33 19.0459 227.295 18.8808C227.26 18.5836 226.976 18.4184 226.658 18.5505C226.587 18.5836 226.481 18.6166 226.41 18.6496C226.268 18.7157 226.162 18.7157 226.021 18.7157C225.596 18.6826 225.207 18.7487 224.817 18.8478C224.746 18.8808 224.676 18.8808 224.605 18.9138C224.286 19.0789 223.968 19.211 223.685 19.4422C223.189 19.8055 222.835 20.2348 222.481 20.6972C222.41 20.8293 222.304 20.9284 222.233 21.0605C222.127 21.3247 222.021 21.5559 221.879 21.8201C221.738 22.1173 221.596 22.3815 221.384 22.6457C221.278 22.7778 221.136 22.9429 221.03 23.075C220.676 23.5374 220.251 23.9007 219.791 24.2309C219.756 24.2639 219.72 24.2639 219.72 24.2639C219.543 24.363 219.331 24.4621 219.154 24.5281C218.764 24.7263 218.34 24.7924 217.88 24.7924C217.773 24.7924 217.703 24.7593 217.596 24.7263C217.278 24.6272 217.136 24.3961 217.101 24.0988C217.065 23.8676 217.136 23.7355 217.349 23.6365C217.526 23.5374 217.703 23.4713 217.88 23.4053C218.092 23.3062 218.304 23.2402 218.517 23.1411C218.552 23.1081 218.588 23.1081 218.658 23.075C218.977 22.8769 219.26 22.6787 219.508 22.4475C219.933 22.0843 220.287 21.688 220.499 21.1595C220.676 20.7963 220.676 20.433 220.57 20.0367C220.464 19.6734 220.003 19.3762 219.614 19.3762C219.154 19.3762 218.729 19.4752 218.34 19.6734C218.127 19.8055 217.95 19.9376 217.773 20.0697C217.207 20.5651 216.782 21.1595 216.464 21.8201C216.287 22.1503 216.181 22.4806 216.039 22.8108C215.968 23.009 215.897 23.2071 215.791 23.3723C215.65 23.6034 215.508 23.8346 215.366 24.0658C215.154 24.33 214.942 24.5942 214.694 24.8254C214.552 24.9575 214.34 25.0896 214.163 25.1556C214.021 25.2217 213.915 25.1887 213.809 25.1226C213.738 25.0896 213.703 24.9905 213.703 24.9245C213.632 24.6933 213.738 24.4621 213.809 24.2639C213.951 23.8676 214.163 23.5044 214.375 23.1411C214.552 22.8439 214.729 22.5466 214.8 22.1833C214.836 22.0182 214.836 21.8861 214.765 21.721C214.659 21.5558 214.552 21.3577 214.34 21.2586C214.021 21.0605 213.703 20.9284 213.349 20.7963C213.243 20.7632 213.137 20.7302 213.03 20.6642C212.747 20.5321 212.712 20.433 212.747 20.1688C212.783 19.9376 212.783 19.7064 212.712 19.4752C212.641 19.2441 212.429 19.112 212.181 19.145C211.968 19.178 211.756 19.2441 211.614 19.3762C211.261 19.7064 211.084 20.1688 211.296 20.6311C211.331 20.6972 211.367 20.7632 211.402 20.8293C211.473 20.9944 211.508 21.1595 211.473 21.3247C211.402 21.6219 211.261 21.8861 211.19 22.1833C211.084 22.5136 210.942 22.8108 210.8 23.1411C210.73 23.3392 210.623 23.5044 210.482 23.6695C210.199 24.0328 209.88 24.33 209.526 24.6603C209.455 24.7263 209.385 24.7593 209.278 24.7924C209.208 24.8254 209.101 24.7924 209.101 24.6933C209.101 24.6272 209.101 24.5612 209.137 24.5281C209.208 24.33 209.314 24.1318 209.385 23.9337C209.455 23.6365 209.562 23.3062 209.597 23.009C209.632 22.5796 209.597 22.1503 209.455 21.721C209.385 21.4568 209.208 21.2256 208.924 21.0935C208.712 20.9944 208.535 20.9284 208.287 20.9284C207.933 20.9614 207.579 21.0605 207.261 21.2256C206.907 21.4568 206.588 21.721 206.305 22.0512C206.022 22.3815 205.703 22.7448 205.456 23.1081C205.42 23.1741 205.349 23.2402 205.279 23.3062C205.208 23.3723 205.102 23.3392 205.102 23.2732C205.102 23.1741 205.066 23.075 205.102 22.976C205.137 22.8108 205.208 22.6457 205.243 22.4806C205.314 22.2494 205.456 22.0843 205.633 21.9191C206.128 21.4568 206.624 21.0274 207.048 20.5321C207.615 19.8716 208.146 19.211 208.5 18.4514C208.641 18.1872 208.747 17.89 208.818 17.5928C208.854 17.3946 208.854 17.2295 208.889 17.0314C208.924 16.7671 208.854 16.536 208.712 16.3048C208.5 16.0076 208.216 15.8755 207.827 15.8755C207.509 15.8755 207.225 15.9745 207.013 16.1397C206.801 16.3048 206.588 16.4699 206.447 16.7011C206.128 17.1635 205.845 17.6258 205.633 18.1212C205.456 18.5505 205.279 18.9799 205.137 19.4092C204.995 19.7725 204.889 20.1027 204.783 20.466C204.712 20.6972 204.606 20.9614 204.571 21.1926C204.5 21.4238 204.358 21.6549 204.217 21.8531C204.181 21.8861 204.181 21.9191 204.146 21.9522C204.004 22.1173 203.969 22.3154 204.075 22.5136C204.111 22.5466 204.111 22.6127 204.146 22.6787C204.146 22.7448 204.181 22.8108 204.181 22.8769C204.181 23.075 204.146 23.2402 204.11 23.4053C204.04 23.7025 203.969 24.0328 203.898 24.33C203.863 24.4621 203.827 24.5942 203.792 24.6933C203.721 25.0235 203.65 25.3538 203.58 25.7171C203.544 25.8161 203.544 25.9483 203.509 26.0473C203.403 26.3776 203.403 26.7078 203.367 27.0051C203.367 27.1372 203.367 27.2362 203.438 27.3684C203.615 27.6656 203.934 27.6656 204.146 27.4014L204.181 27.3684C204.217 27.2693 204.287 27.2032 204.287 27.1042C204.394 26.8069 204.464 26.5427 204.606 26.2785C204.712 26.0804 204.783 25.8822 204.889 25.684C205.031 25.4198 205.172 25.1226 205.314 24.8584C205.597 24.396 205.916 23.9667 206.234 23.5374C206.553 23.1741 206.836 22.7778 207.225 22.4806C207.367 22.3485 207.544 22.2164 207.756 22.1173C207.827 22.0512 207.933 22.0512 208.039 22.0182C208.146 21.9852 208.252 22.0512 208.323 22.1503C208.393 22.2494 208.464 22.3815 208.464 22.4806C208.464 22.7448 208.5 23.009 208.393 23.2402C208.393 23.3062 208.393 23.3392 208.358 23.4053C208.323 23.5374 208.287 23.7025 208.216 23.8346C208.216 23.9007 208.181 23.9337 208.146 23.9997C207.969 24.5612 207.686 25.0896 207.332 25.585C207.084 25.8822 206.765 26.0804 206.34 26.1464C206.163 26.1794 205.951 26.1794 205.774 26.2125C205.633 26.2455 205.491 26.2455 205.385 26.2785C205.066 26.3446 204.96 26.5757 204.925 26.8069C204.925 26.873 204.925 26.939 204.96 26.972C205.102 27.2032 205.349 27.3353 205.633 27.3684C205.88 27.4014 206.093 27.3684 206.34 27.3023C206.624 27.2363 206.871 27.1042 207.119 26.972C207.402 26.8069 207.686 26.6418 207.969 26.5097C208.252 26.3776 208.57 26.2455 208.854 26.1134C209.066 25.9813 209.314 25.8822 209.526 25.7501C209.845 25.5519 210.128 25.3208 210.376 25.0896C210.8 24.6933 211.19 24.2309 211.473 23.7686C211.685 23.4383 211.862 23.1081 211.968 22.7117C212.004 22.5136 212.11 22.3485 212.145 22.1503C212.181 22.0512 212.216 21.9522 212.252 21.8861C212.358 21.6549 212.464 21.6219 212.747 21.6549C212.96 21.688 213.137 21.787 213.313 21.8531C213.349 21.8531 213.349 21.8861 213.384 21.8861C213.561 21.9852 213.632 22.1503 213.561 22.3154C213.526 22.3815 213.49 22.4475 213.455 22.5136C213.384 22.6457 213.313 22.7448 213.278 22.8769C213.172 23.042 213.101 23.2402 212.995 23.4053C212.818 23.7686 212.641 24.0988 212.606 24.4951C212.57 24.6603 212.57 24.8254 212.535 24.9905C212.464 25.4198 212.676 25.7171 213.03 25.9813C213.455 26.2785 213.951 26.3115 214.446 26.1134C214.906 25.9152 215.296 25.618 215.65 25.2877C215.756 25.1887 215.862 25.0566 215.968 24.9575C216.039 24.8914 216.11 24.8914 216.145 24.9575C216.181 24.9905 216.216 25.0566 216.251 25.1226C216.535 25.4859 216.959 25.7171 217.455 25.7831C218.163 25.8822 218.835 25.6841 219.472 25.4859C219.508 25.4859 219.543 25.4529 219.579 25.4529C219.933 25.2547 220.287 25.0896 220.64 24.8584C220.888 24.6603 221.136 24.4621 221.384 24.2639C221.419 24.2309 221.455 24.1979 221.49 24.1318C221.561 24.0988 221.632 24.0988 221.667 24.1649C221.702 24.1979 221.702 24.264 221.738 24.297C221.844 24.4951 221.915 24.6603 222.056 24.8254C222.163 24.9575 222.304 25.0566 222.481 25.0896C222.729 25.1556 222.941 25.1887 223.189 25.1556C223.543 25.0896 223.897 24.9905 224.18 24.7593C224.605 24.4291 224.959 24.0658 225.242 23.6365C225.313 23.5374 225.348 23.4713 225.419 23.4053C225.454 23.3392 225.525 23.2732 225.631 23.2732C225.738 23.3062 225.808 23.3723 225.879 23.4713C225.95 23.5374 225.985 23.6034 226.056 23.6695C226.41 23.9997 226.835 24.0988 227.295 23.9997C227.543 23.9667 227.791 23.8676 228.003 23.7025C228.038 23.6695 228.074 23.6365 228.144 23.6365C228.18 23.6365 228.215 23.6034 228.286 23.6034C228.286 23.6695 228.286 23.7025 228.286 23.7355C228.286 23.8346 228.286 23.9007 228.286 23.9997C228.321 24.1319 228.428 24.264 228.569 24.297C228.782 24.363 229.1 24.297 229.206 24.0988C229.277 23.9667 229.348 23.8346 229.383 23.7025C229.454 23.4383 229.49 23.2071 229.56 22.9429C229.596 22.6457 229.702 22.3485 229.773 22.0512C229.808 21.9522 229.808 21.8861 229.843 21.787C230.091 21.2916 230.374 20.7963 230.764 20.3669C231.012 20.0697 231.295 19.8055 231.578 19.5413C231.861 19.2771 232.18 19.0129 232.534 18.8147C232.675 18.7157 232.817 18.6826 232.994 18.6496C233.171 18.6166 233.277 18.6826 233.312 18.8478C233.312 18.9468 233.348 19.0459 233.312 19.112C233.242 19.2771 233.171 19.4752 233.065 19.6404C232.923 19.8715 232.711 20.0697 232.498 20.2679C232.286 20.433 232.073 20.5981 231.861 20.7632C231.578 20.9614 231.259 21.1926 230.941 21.3577C230.764 21.4568 230.622 21.5559 230.551 21.688C230.516 21.754 230.481 21.8201 230.481 21.8861C230.481 22.0182 230.516 22.1503 230.587 22.2824C230.764 22.5796 230.976 22.8108 231.224 23.042C231.543 23.3062 231.896 23.5044 232.321 23.6034C232.888 23.7686 233.454 23.6695 233.949 23.4383C234.233 23.3062 234.48 23.1411 234.693 22.9429C234.728 22.9099 234.764 22.8769 234.799 22.8769C234.834 22.8769 234.87 22.8769 234.941 22.8439C234.941 22.8769 234.976 22.9099 234.976 22.9429C234.941 23.2071 234.941 23.4383 234.87 23.7025C234.834 23.9667 234.764 24.2639 234.764 24.5281C234.764 24.5942 234.764 24.6603 234.728 24.7263C234.657 25.2547 234.657 25.7501 234.657 26.2785C234.657 26.4106 234.693 26.5427 234.693 26.6748C234.693 27.1041 234.764 27.5335 234.834 27.9628C234.905 28.3591 235.117 28.7224 235.365 29.0857C235.613 29.4159 236.002 29.548 236.427 29.482C236.64 29.449 236.852 29.3499 237.064 29.2178C237.312 29.0527 237.489 28.8545 237.631 28.6233C237.914 28.161 238.055 27.6326 238.126 27.1042C238.126 27.0381 238.126 26.972 238.162 26.939C238.232 26.6088 238.232 26.3115 238.232 25.9813C238.232 25.9152 238.232 25.8162 238.232 25.7501C238.268 25.5189 238.268 25.2877 238.232 25.0566C238.197 24.7593 238.197 24.4621 238.162 24.1649C238.055 23.4383 237.949 22.7448 237.772 22.0512C237.737 21.9522 237.737 21.8861 237.737 21.787C237.737 21.5889 237.808 21.4898 237.985 21.4568C238.055 21.4238 238.162 21.4237 238.232 21.4237C238.445 21.4237 238.657 21.3577 238.869 21.2586C238.976 21.1926 239.082 21.1595 239.188 21.1265C239.259 21.0935 239.33 21.0605 239.4 21.1265C239.4 21.1595 239.436 21.1926 239.436 21.2586C239.436 21.3577 239.471 21.4568 239.471 21.5889C239.542 21.9191 239.613 22.2164 239.896 22.4806C240.038 22.6457 240.215 22.7448 240.462 22.7778C240.993 22.8769 241.453 22.7778 241.914 22.5136C242.268 22.2824 242.551 22.0182 242.798 21.721C242.94 21.5558 243.082 21.3577 243.188 21.1926C243.259 21.0935 243.329 20.9944 243.471 20.9284C243.613 20.9614 243.683 21.0274 243.754 21.0935C243.825 21.1595 243.86 21.2256 243.931 21.2916C244.108 21.4568 244.285 21.6219 244.568 21.6549C244.816 21.688 245.064 21.721 245.347 21.6219C245.666 21.5228 245.949 21.3907 246.161 21.1926C246.48 20.8953 246.763 20.6311 246.975 20.2679C247.081 20.0367 247.223 19.8385 247.294 19.6073C247.435 19.2771 247.542 18.9799 247.683 18.6496C247.86 18.2863 248.002 17.923 248.108 17.5598C248.143 17.4607 248.214 17.3616 248.249 17.2625C248.32 17.1634 248.462 17.1634 248.533 17.2625C248.568 17.2956 248.603 17.3286 248.603 17.3946C248.674 17.5267 248.71 17.6588 248.78 17.7909C248.851 17.9891 248.922 18.2203 248.993 18.4184C249.064 18.6496 249.134 18.8808 249.205 19.145C249.276 19.4092 249.276 19.6404 249.241 19.9046C249.17 20.1688 249.064 20.3669 248.816 20.5321C248.674 20.6311 248.533 20.6972 248.391 20.6972C248.249 20.6972 248.108 20.6972 247.966 20.6642C247.789 20.6311 247.612 20.6311 247.435 20.6642C247.117 20.7302 247.011 21.0605 247.223 21.2916C247.329 21.3907 247.435 21.4898 247.577 21.4898C247.825 21.5228 248.072 21.5889 248.356 21.5889C249.028 21.5889 249.595 21.3577 250.196 21.1265C250.444 21.0274 250.656 20.8953 250.869 20.7632C251.329 20.499 251.683 20.1688 252.037 19.8385C252.072 19.8055 252.108 19.7725 252.143 19.7394C252.214 19.6734 252.32 19.7064 252.355 19.7725C252.391 19.8385 252.391 19.9046 252.426 19.9376C252.462 20.0367 252.497 20.1688 252.568 20.2679C252.674 20.4 252.78 20.5321 252.922 20.6642C253.134 20.8293 253.347 20.9614 253.63 20.9944C254.054 21.0274 254.479 20.9614 254.869 20.7632C255.364 20.499 255.824 20.2018 256.214 19.8055C256.497 19.5083 256.745 19.178 256.957 18.8478C257.205 18.4845 257.417 18.0882 257.594 17.6919C257.7 17.4607 257.806 17.2295 257.877 16.9983C257.983 16.4039 257.983 16.2387 257.913 16.1066ZM231.082 16.3048C231.224 15.9745 231.33 15.6443 231.507 15.314C231.684 14.8847 231.932 14.4884 232.144 14.0591C232.25 13.8279 232.427 13.5967 232.604 13.3655C232.675 13.2995 232.746 13.2334 232.852 13.1674C232.958 13.1013 233.1 13.1343 233.135 13.2664C233.135 13.3325 233.171 13.3985 233.135 13.4316C232.994 13.8939 232.817 14.3563 232.569 14.7856C232.286 15.281 231.967 15.7434 231.684 16.2057C231.542 16.4039 231.401 16.569 231.259 16.7671C231.224 16.8002 231.224 16.8332 231.189 16.8332C231.153 16.8332 231.118 16.8662 231.082 16.8332C231.047 16.8332 231.012 16.7671 231.012 16.7341C231.012 16.7011 231.012 16.635 231.012 16.602C231.012 16.536 231.047 16.4039 231.082 16.3048ZM217.561 21.8531C217.703 21.5889 217.844 21.2916 218.057 21.0605C218.163 20.9284 218.269 20.8293 218.375 20.7302C218.552 20.5651 218.764 20.3669 218.977 20.2348C219.083 20.1688 219.189 20.1358 219.331 20.1027C219.508 20.0697 219.649 20.2018 219.614 20.3669C219.579 20.466 219.543 20.5651 219.508 20.6311C219.295 21.0274 219.012 21.3577 218.658 21.6549C218.446 21.8531 218.198 22.0182 217.915 22.1503C217.844 22.1833 217.773 22.2164 217.738 22.2164C217.596 22.2494 217.526 22.1833 217.526 22.0512C217.526 22.0182 217.526 22.0182 217.526 21.9522C217.526 21.9522 217.561 21.9191 217.561 21.8531ZM205.845 19.9706C205.916 19.7394 205.951 19.5413 206.057 19.3101C206.093 19.2441 206.128 19.145 206.163 19.0789C206.376 18.6166 206.553 18.1542 206.836 17.7249C206.942 17.5267 207.048 17.3286 207.19 17.1304C207.296 16.9653 207.402 16.8332 207.544 16.6681C207.579 16.602 207.65 16.569 207.721 16.536C207.827 16.4699 207.933 16.5029 207.969 16.635C207.969 16.7011 208.004 16.8002 207.969 16.8662C207.969 16.9323 207.933 16.9983 207.933 17.0644C207.898 17.4277 207.721 17.7579 207.544 18.0882C207.19 18.7487 206.73 19.3431 206.305 19.9376C206.234 20.0367 206.128 20.1027 206.057 20.1688C206.022 20.2018 205.986 20.2018 205.951 20.2018C205.88 20.2018 205.88 20.1358 205.88 20.1027C205.845 20.0367 205.845 20.0037 205.845 19.9706ZM225.773 20.466C225.561 20.8623 225.348 21.2917 225.136 21.688C224.888 22.1503 224.605 22.6127 224.286 23.042C224.109 23.2732 223.897 23.5044 223.649 23.7025C223.508 23.8016 223.366 23.8346 223.224 23.8676C223.083 23.8676 222.941 23.8346 222.87 23.7355C222.764 23.6034 222.693 23.4383 222.693 23.2732C222.693 23.042 222.729 22.7778 222.729 22.5466C222.764 22.3485 222.835 22.1173 222.941 21.9522C223.047 21.754 223.118 21.5889 223.189 21.3907C223.295 21.0605 223.508 20.7963 223.72 20.5321C223.932 20.2679 224.215 20.0037 224.534 19.8385C224.746 19.7064 224.994 19.5743 225.242 19.5083C225.348 19.4752 225.419 19.4752 225.525 19.4752C225.773 19.4752 225.915 19.6073 225.95 19.8385C225.95 19.8716 225.95 19.9046 225.95 19.9376C225.879 20.0367 225.879 20.2679 225.773 20.466ZM237.241 26.2125C237.206 26.5097 237.17 26.8069 237.1 27.1042C237.029 27.3684 236.993 27.6656 236.781 27.9298C236.746 27.9958 236.675 28.0619 236.604 28.1279C236.463 28.227 236.286 28.194 236.144 28.0619C235.967 27.8307 235.932 27.5995 235.932 27.3684C235.896 26.972 235.896 26.5757 235.896 26.1464C235.896 26.0804 235.896 26.0143 235.896 25.9483C235.861 25.5189 235.896 25.0566 235.932 24.6272V24.5942C235.932 24.2639 236.002 23.9007 236.038 23.5044C236.038 23.3723 236.073 23.1741 236.073 22.9429C236.073 22.9099 236.073 22.8439 236.073 22.8108C236.179 22.5466 236.179 22.2824 236.215 22.0182C236.25 21.8861 236.286 21.754 236.286 21.6219V21.5889C236.321 21.5228 236.356 21.4568 236.427 21.4568C236.533 21.4568 236.569 21.5228 236.604 21.5889C236.71 21.754 236.781 21.9191 236.817 22.0843C236.958 22.7778 237.1 23.4383 237.1 24.1649C237.1 24.264 237.1 24.3961 237.135 24.4951C237.135 24.5612 237.135 24.5942 237.135 24.6603C237.241 25.1556 237.312 25.684 237.241 26.2125ZM243.719 17.857C243.542 18.2203 243.365 18.6166 243.152 18.9799C242.94 19.3762 242.692 19.7725 242.48 20.1358C242.338 20.4 242.126 20.6642 241.914 20.8953C241.807 21.0274 241.666 21.1265 241.524 21.2586C241.418 21.3577 241.276 21.3907 241.135 21.3907C240.958 21.3907 240.816 21.3247 240.71 21.1926C240.639 21.0935 240.604 20.9944 240.569 20.8623C240.533 20.6311 240.533 20.3669 240.604 20.1358C240.604 20.1027 240.604 20.0697 240.604 20.0367C240.639 19.6404 240.816 19.2771 240.993 18.9138C241.17 18.5175 241.418 18.1542 241.737 17.824C241.984 17.5598 242.268 17.3286 242.621 17.1635C242.692 17.1304 242.728 17.0974 242.798 17.0644C242.975 16.9653 243.152 16.9323 243.329 16.8993C243.613 16.8662 243.79 16.9983 243.825 17.2625C243.825 17.4937 243.79 17.6919 243.719 17.857Z" fill="black"/>
<path d="M247.365 32.2561C247.294 32.124 247.152 32.0579 246.975 32.0579C246.727 32.0579 246.586 32.19 246.515 32.3551C246.409 32.5863 246.303 32.7845 246.197 33.0156C246.055 33.3789 245.807 33.7092 245.489 33.9734C245.312 34.1385 245.17 34.3036 244.993 34.4688C244.922 34.5348 244.851 34.6009 244.745 34.6339C244.639 34.6669 244.533 34.6339 244.533 34.5348C244.533 34.4688 244.533 34.4027 244.568 34.3697C244.675 34.1055 244.816 33.8413 244.887 33.5441C244.958 33.3129 245.028 33.0487 245.028 32.8175C245.028 32.7845 245.028 32.7184 245.028 32.6854C245.099 32.2891 245.028 31.9258 244.887 31.5295C244.816 31.3644 244.745 31.1992 244.568 31.0671C244.285 30.836 243.931 30.7039 243.506 30.7699C242.975 30.869 242.551 31.1002 242.197 31.4304C241.807 31.7937 241.453 32.19 241.17 32.6193C241.029 32.7845 240.923 32.9496 240.781 33.1477C240.746 33.1808 240.71 33.1808 240.675 33.1808C240.604 33.1808 240.569 33.1477 240.569 33.0817C240.533 32.9496 240.533 32.8175 240.604 32.6854C240.639 32.6193 240.639 32.5533 240.675 32.4872C240.71 32.157 240.887 31.9258 241.135 31.6946C241.418 31.4304 241.701 31.1662 241.984 30.869C242.515 30.3406 242.976 29.8122 243.365 29.2177C243.683 28.7553 243.967 28.26 244.144 27.7316C244.25 27.4013 244.321 27.038 244.321 26.7078C244.321 26.4766 244.25 26.2784 244.144 26.0803C243.931 25.783 243.648 25.6179 243.259 25.6179C242.905 25.6179 242.586 25.75 242.338 25.9812C242.091 26.1794 241.878 26.4436 241.701 26.7078C241.347 27.2692 241.064 27.8306 240.816 28.4581C240.675 28.8214 240.569 29.1847 240.427 29.581C240.321 29.9443 240.179 30.2745 240.073 30.6378C239.967 31.0341 239.825 31.3644 239.577 31.6946C239.33 31.9918 239.33 32.0579 239.507 32.3882C239.542 32.4542 239.577 32.5533 239.577 32.6193C239.542 32.9496 239.542 33.2468 239.4 33.5441C239.4 33.5771 239.4 33.6101 239.365 33.6431C239.33 33.7422 239.294 33.8743 239.259 33.9734C239.117 34.2706 238.976 34.6009 238.834 34.8981C238.657 35.2614 238.445 35.5916 238.126 35.8889C238.055 35.9549 237.985 36.021 237.914 36.054C237.666 36.1861 237.418 36.087 237.312 35.8558C237.277 35.7568 237.241 35.6247 237.206 35.4926C237.171 35.1953 237.135 34.8981 237.171 34.6009C237.241 34.2376 237.206 33.8743 237.312 33.5441C237.383 33.3459 237.383 33.1477 237.454 32.9496C237.489 32.8505 237.489 32.7514 237.454 32.6524C237.383 32.3551 236.958 32.19 236.675 32.3882C236.498 32.4872 236.392 32.6524 236.356 32.8175C236.286 33.0487 236.215 33.3129 236.109 33.5441C236.002 33.8413 235.896 34.1715 235.79 34.4688C235.719 34.6339 235.684 34.832 235.578 34.9972C235.365 35.4265 235.153 35.8558 234.905 36.2521C234.693 36.5494 234.445 36.8136 234.126 37.0117C233.949 37.1108 233.773 37.1769 233.56 37.2099C233.348 37.2429 233.171 37.1769 233.029 37.0117C232.958 36.9127 232.888 36.8136 232.852 36.7145C232.817 36.5164 232.781 36.3512 232.817 36.1531C232.852 35.9219 232.888 35.6907 232.923 35.4595C232.958 35.3274 232.994 35.1953 233.029 35.0962C233.065 34.9311 233.135 34.733 233.171 34.5678C233.171 34.5348 233.206 34.4688 233.206 34.4357C233.312 34.1715 233.383 33.9404 233.489 33.6762C233.56 33.478 233.666 33.2798 233.737 33.0817C233.808 32.9166 233.879 32.7514 233.949 32.5533C233.949 32.4872 233.985 32.4212 233.949 32.3882C233.879 32.223 233.666 32.0909 233.489 32.0909C233.277 32.0909 233.1 32.124 232.994 32.2561C232.923 32.3551 232.817 32.4212 232.781 32.5203C232.604 32.8505 232.427 33.1808 232.286 33.5441C232.109 34.0394 231.932 34.5678 231.79 35.0962C231.79 35.1293 231.755 35.1623 231.755 35.1953C231.507 35.7568 231.189 36.3182 230.799 36.8136C230.587 37.0778 230.374 37.309 230.091 37.5071C229.914 37.6392 229.667 37.7053 229.454 37.7383C229.1 37.7713 228.888 37.6392 228.711 37.375C228.675 37.309 228.605 37.2429 228.569 37.1769C228.428 36.9127 228.357 36.6154 228.357 36.3182V36.2852C228.428 36.087 228.498 35.8889 228.64 35.7237C229.136 35.1623 229.525 34.5678 229.95 33.9734C230.339 33.3789 230.728 32.7845 231.012 32.157C231.118 31.9258 231.259 31.6616 231.366 31.4304C231.472 31.1332 231.578 30.836 231.684 30.5387C231.826 30.2415 231.897 29.9112 231.967 29.614C232.003 29.5149 232.038 29.4489 232.038 29.3498C232.038 29.1516 232.144 28.9205 232.109 28.7223C232.109 28.6893 232.109 28.6563 232.109 28.6232C232.18 28.3921 232.144 28.1939 232.109 27.9627C232.073 27.6985 231.897 27.5004 231.72 27.3352C231.649 27.2692 231.578 27.2362 231.507 27.2031C231.118 27.038 230.728 27.071 230.339 27.2692C230.127 27.3683 229.95 27.5664 229.773 27.7316C229.525 27.9958 229.313 28.293 229.136 28.6232C228.888 29.0856 228.64 29.548 228.463 30.0103C228.357 30.2415 228.286 30.4727 228.18 30.7369C228.003 31.1332 227.897 31.5625 227.791 31.9918C227.755 32.1239 227.755 32.223 227.72 32.3551C227.614 32.6854 227.578 33.0156 227.507 33.3459C227.437 33.6101 227.437 33.8743 227.401 34.1715C227.366 34.3697 227.33 34.6009 227.33 34.799C227.33 34.9641 227.295 35.0963 227.224 35.2284C227.153 35.3605 227.083 35.5256 226.976 35.6577C226.729 36.021 226.446 36.4173 226.198 36.7806C226.092 36.9127 225.985 37.0778 225.844 37.2099C225.454 37.6062 224.994 37.9695 224.463 38.2667C224.357 38.3328 224.286 38.3658 224.18 38.4318C224.003 38.4979 223.826 38.5309 223.685 38.597C223.472 38.663 223.295 38.663 223.083 38.663C222.694 38.663 222.304 38.3988 222.233 38.0025C222.198 37.7713 222.163 37.5732 222.198 37.342C222.233 37.0448 222.34 36.7475 222.41 36.4503V36.4173C222.623 35.9549 222.871 35.4926 223.189 35.0632C223.401 34.799 223.649 34.5348 223.968 34.3367C224.109 34.2376 224.251 34.1715 224.428 34.1055C224.57 34.0394 224.711 34.0725 224.817 34.1715C224.923 34.2376 224.923 34.3697 224.888 34.4688C224.853 34.6009 224.782 34.733 224.676 34.8651C224.57 34.9972 224.499 35.1293 224.428 35.2944C224.393 35.3605 224.393 35.3935 224.393 35.4595C224.393 35.6907 224.534 35.7898 224.711 35.8889C224.853 35.9549 225.136 35.9219 225.242 35.7898C225.525 35.5256 225.702 35.2284 225.844 34.8981C225.879 34.799 225.879 34.6999 225.915 34.6009C225.985 34.2706 225.95 34.0064 225.702 33.7422C225.49 33.478 225.207 33.2798 224.853 33.2468C224.782 33.2468 224.711 33.2138 224.64 33.2138C224.463 33.1808 224.286 33.1808 224.145 33.2468C223.862 33.3459 223.578 33.445 223.331 33.6101C223.047 33.8082 222.8 34.0064 222.587 34.2376C222.269 34.5348 222.021 34.8981 221.809 35.2614C221.702 35.4595 221.596 35.6907 221.49 35.9219C221.313 36.3512 221.171 36.7806 221.136 37.2759C221.101 37.7053 221.171 38.1346 221.313 38.5639C221.384 38.7291 221.455 38.8612 221.561 39.0263C221.844 39.3565 222.198 39.5547 222.623 39.6538C222.729 39.6868 222.87 39.6868 222.977 39.6868C223.472 39.7859 223.932 39.6868 224.393 39.5217C224.64 39.4556 224.853 39.3235 225.065 39.2244C225.171 39.1584 225.242 39.0923 225.348 39.0263C225.631 38.8612 225.879 38.663 226.092 38.4649C226.481 38.1346 226.835 37.7383 227.153 37.342C227.189 37.2759 227.26 37.2099 227.366 37.1438C227.401 37.1769 227.437 37.1769 227.437 37.2099C227.543 37.375 227.614 37.5732 227.72 37.7383C227.932 38.1346 228.251 38.4318 228.711 38.63C228.923 38.7291 229.1 38.7621 229.348 38.7291C229.596 38.696 229.844 38.663 230.091 38.63C230.304 38.597 230.481 38.4979 230.622 38.3988C231.012 38.1346 231.366 37.8374 231.613 37.5071C231.79 37.309 231.826 37.309 232.003 37.5071C232.109 37.6392 232.25 37.7713 232.392 37.8704C232.711 38.0686 233.029 38.2007 233.454 38.1676C233.843 38.1346 234.268 38.1016 234.587 37.8704C234.764 37.7383 234.976 37.6062 235.118 37.4411C235.33 37.2429 235.507 37.0117 235.684 36.7806C235.755 36.6815 235.825 36.5824 235.932 36.5163C236.038 36.3842 236.179 36.3842 236.321 36.5163C236.392 36.5824 236.463 36.6485 236.533 36.7145C236.817 36.9787 237.135 37.1108 237.524 37.0778C237.808 37.0778 238.091 37.0117 238.374 36.8796C238.409 36.8466 238.48 36.8136 238.516 36.8136C238.586 36.7806 238.693 36.8136 238.693 36.8796C238.728 36.9457 238.728 37.0117 238.728 37.0448C238.763 37.2099 238.905 37.309 239.082 37.342C239.259 37.375 239.365 37.2759 239.471 37.1769C239.507 37.1438 239.542 37.1108 239.542 37.0778C239.613 36.9457 239.648 36.8466 239.684 36.7145C239.719 36.6154 239.754 36.5163 239.79 36.4173C239.931 36.12 240.038 35.8558 240.179 35.5916C240.392 35.0632 240.71 34.6009 241.029 34.1055C241.418 33.544 241.807 33.0156 242.268 32.5203C242.515 32.2561 242.763 32.0249 243.082 31.8597C243.188 31.7937 243.294 31.7937 243.4 31.7607C243.542 31.7276 243.648 31.7937 243.683 31.8928C243.719 31.9918 243.754 32.0909 243.79 32.19C243.86 32.5203 243.825 32.8505 243.719 33.1808C243.648 33.4119 243.542 33.6431 243.471 33.8743C243.329 34.3697 243.046 34.832 242.728 35.2614C242.48 35.5916 242.126 35.8228 241.63 35.8558C241.453 35.8558 241.276 35.8889 241.099 35.9219C240.993 35.9219 240.852 35.9549 240.746 35.9879C240.498 36.054 240.356 36.1861 240.285 36.4173C240.25 36.6484 240.321 36.8136 240.533 36.9457C240.639 37.0117 240.781 37.0778 240.923 37.1108C241.099 37.1438 241.312 37.1438 241.489 37.1108C241.843 37.0448 242.161 36.9457 242.445 36.7475C242.728 36.5824 243.011 36.4173 243.294 36.2521C243.577 36.12 243.896 35.9879 244.179 35.8558C244.356 35.7568 244.533 35.6907 244.675 35.5916C244.958 35.3935 245.241 35.2284 245.524 34.9972C245.843 34.733 246.161 34.4027 246.409 34.1055C246.692 33.7422 246.94 33.3459 247.152 32.9496C247.223 32.7845 247.258 32.6193 247.258 32.4542C247.435 32.4212 247.435 32.3221 247.365 32.2561ZM241.312 29.8782C241.383 29.581 241.524 29.3168 241.63 29.0526C241.772 28.7223 241.914 28.3921 242.091 28.0618C242.303 27.6655 242.515 27.2692 242.799 26.9059C242.869 26.8068 242.94 26.7408 243.046 26.6417C243.082 26.6087 243.117 26.5757 243.152 26.5757C243.259 26.5426 243.4 26.5757 243.4 26.7078C243.4 26.7738 243.4 26.8399 243.4 26.8729C243.4 26.972 243.365 27.071 243.365 27.1701C243.329 27.3683 243.294 27.5995 243.188 27.7646C243.046 27.9627 242.975 28.1939 242.869 28.3921C242.799 28.5572 242.692 28.6893 242.586 28.8544C242.303 29.2177 242.055 29.614 241.772 29.9773C241.701 30.0433 241.63 30.1094 241.56 30.1754C241.524 30.2085 241.453 30.2085 241.418 30.2085C241.347 30.2085 241.347 30.1424 241.347 30.1094C241.276 30.0433 241.312 29.9773 241.312 29.8782ZM228.534 34.3697C228.534 34.3036 228.534 34.2376 228.534 34.1715C228.534 34.1055 228.569 34.0394 228.569 34.0394C228.605 33.7422 228.675 33.511 228.746 33.2468C228.782 33.1477 228.782 33.0817 228.782 32.9826C228.852 32.6854 228.923 32.3551 229.029 32.0579C229.136 31.7607 229.206 31.4634 229.348 31.1662C229.49 30.8029 229.667 30.4727 229.844 30.1094C230.021 29.7461 230.233 29.3828 230.445 29.0195C230.516 28.8874 230.622 28.7553 230.728 28.6232C230.764 28.5572 230.87 28.4911 230.941 28.4581C231.012 28.3921 231.118 28.4251 231.189 28.4911C231.224 28.5572 231.259 28.6232 231.259 28.6893C231.295 29.0526 231.295 29.4159 231.153 29.7461C231.118 29.8122 231.118 29.8782 231.118 29.9112C230.976 30.4727 230.764 31.0011 230.551 31.4965C230.41 31.8267 230.233 32.157 230.056 32.4542C229.773 32.9166 229.49 33.3789 229.206 33.8413C229.136 33.9734 229.065 34.1055 228.994 34.2376C228.959 34.3036 228.888 34.3697 228.817 34.4027C228.64 34.4688 228.534 34.4357 228.534 34.3697Z" fill="black"/>
</svg>
