<svg width="84" height="40" viewBox="0 0 84 40" fill="none" xmlns="http://www.w3.org/2000/svg">
<path d="M83.9241 8.08903C83.7607 7.782 83.325 7.65042 82.9982 7.782C82.7804 7.82587 82.6715 7.95745 82.5626 8.1329C82.3992 8.43993 82.2358 8.74697 82.0724 9.05401C81.909 9.31719 81.8001 9.58035 81.5823 9.84353C81.2555 10.2822 80.9287 10.6769 80.5475 11.1156C80.0029 11.7296 79.4039 12.256 78.5325 12.6069C78.3691 12.6946 78.2057 12.7385 78.0423 12.7385C77.7156 12.7823 77.4977 12.6507 77.3343 12.4753C77.2254 12.2998 77.1165 12.1244 77.1165 11.9489C77.1165 11.7735 77.1165 11.598 77.1165 11.4226C77.1165 11.0717 77.1165 10.7208 77.171 10.4137C77.2254 10.0628 77.3343 9.66809 77.4433 9.31719C77.6066 8.8347 77.7155 8.35221 77.9334 7.86972C78.0968 7.47496 78.2057 7.03634 78.3146 6.64158C78.5325 6.0275 78.8592 5.89592 79.4583 5.85206C79.8395 5.8082 80.2207 5.76433 80.6564 5.72046C80.9287 5.6766 81.1466 5.63275 81.4189 5.58888C81.5823 5.54502 81.7457 5.45729 81.8001 5.32571C82.0724 4.88708 81.8001 4.44846 81.1466 4.44846C80.9832 4.44846 80.7654 4.44846 80.602 4.49232C80.4386 4.49232 80.2208 4.53619 80.0574 4.53619C79.9485 4.53619 79.894 4.53619 79.7851 4.53619C79.4583 4.53619 79.2949 4.40459 79.3494 4.18528C79.3494 4.00983 79.4583 3.83438 79.5128 3.70279C79.5672 3.61507 79.6217 3.52735 79.6217 3.43963C79.8395 2.86942 80.1118 2.34306 80.3841 1.81671C80.493 1.5974 80.5475 1.33422 80.5475 1.11491C80.493 0.764011 80.1663 0.544707 79.6761 0.588569C79.4583 0.632432 79.2405 0.720146 79.0771 0.851733C78.8592 1.07105 78.6958 1.37809 78.5869 1.64126C78.2602 2.38693 77.9334 3.13259 77.6611 3.87825C77.6066 4.0537 77.4977 4.22914 77.3888 4.40459C77.2254 4.66777 77.0076 4.88708 76.5719 4.88708C76.4085 4.88708 76.2451 4.93095 76.0817 4.97481C75.8094 5.01867 75.5916 5.1064 75.3193 5.15026C75.047 5.23798 74.9381 5.50115 75.047 5.6766C75.1014 5.80819 75.2104 5.93978 75.4282 5.98364C75.646 6.07137 75.8639 6.11523 76.0817 6.15909C76.463 6.20295 76.5719 6.3784 76.5174 6.64158C76.5174 6.64158 76.5174 6.64158 76.5174 6.68544C76.463 6.90476 76.354 7.12407 76.2996 7.34338C76.2451 7.51883 76.1907 7.65042 76.1362 7.82587C75.9728 8.48381 75.755 9.09787 75.4282 9.71195C75.2104 10.1067 74.9925 10.5015 74.6657 10.8524C74.5568 11.0278 74.3934 11.1594 74.2301 11.3349C73.9578 11.598 73.6855 11.8173 73.3587 12.0805C73.1953 12.2121 73.0319 12.2998 72.8141 12.4314C72.5963 12.5191 72.4328 12.4753 72.3784 12.256C72.3239 12.1682 72.3239 12.0805 72.3239 11.9928C72.215 11.2033 71.9972 10.4576 71.6704 9.75581C71.5615 9.5365 71.507 9.36105 71.3981 9.14174C71.2892 8.87857 71.1803 8.61538 71.0713 8.35221C70.8535 7.86972 70.6901 7.38724 70.799 6.81703C70.908 6.42226 70.6901 6.11523 70.2 5.93978C69.9277 5.80819 69.3286 5.85206 69.1652 6.07137C69.0563 6.20296 68.8929 6.33455 68.784 6.51C68.5117 6.99248 68.2938 7.47496 68.076 7.95745C67.9126 8.35221 67.6948 8.74698 67.5314 9.14174C67.368 9.49264 67.2591 9.8874 66.9868 10.2383C66.9868 10.2383 66.9868 10.2383 66.9868 10.2822C66.8234 10.6331 66.7145 10.984 66.5511 11.3349C66.4422 11.5542 66.3333 11.8173 66.1699 12.0367C65.952 12.4753 65.6797 12.87 65.2985 13.2209C65.1351 13.3964 64.8628 13.528 64.645 13.7034C64.5361 13.7912 64.3727 13.835 64.1548 13.835C63.937 13.835 63.7736 13.7912 63.6647 13.6596C63.3923 13.3525 63.2834 13.0455 63.3379 12.6946C63.3379 12.6069 63.3379 12.4753 63.3923 12.3876C63.3923 11.9489 63.4468 11.5103 63.5558 11.0717C63.7191 10.4137 63.9914 9.84353 64.2093 9.18559C64.2637 9.01014 64.3182 8.79083 64.3182 8.57152C64.3182 8.4838 64.3182 8.35222 64.2637 8.22063C64.1548 7.91359 63.7736 7.782 63.3923 7.86972C63.3379 7.86972 63.229 7.91359 63.1745 7.95745C62.8478 8.08904 62.4665 8.17676 62.0853 8.1329C62.0308 8.1329 61.9219 8.1329 61.8675 8.1329C61.0505 8.17676 60.2336 8.30835 59.5256 8.61539C59.0355 8.8347 58.6543 9.09787 58.2186 9.40491C57.7284 9.75581 57.3472 10.1506 56.966 10.5892C56.6937 10.8962 56.4758 11.2033 56.258 11.5103C56.0946 11.8173 55.8768 12.1682 55.6589 12.4314C55.2233 12.9139 54.6786 13.3087 53.9162 13.4841C53.535 13.5718 53.0993 13.5718 52.718 13.4403C52.1734 13.2209 51.8467 12.9139 51.7922 12.4314C51.7922 12.2998 51.7922 12.1682 51.7922 12.0805C51.7922 11.7735 51.9011 11.4226 52.0101 11.1156C52.1734 10.6331 52.3368 10.1506 52.5002 9.66808C52.6636 9.27332 52.7725 8.8347 52.9359 8.43994C53.0993 8.08904 53.2082 7.73814 53.3171 7.38724C53.5349 6.77317 53.8073 6.15909 54.0796 5.58888C54.243 5.19412 54.4608 4.79935 54.6786 4.40459C54.8965 3.96597 55.1143 3.48348 55.3866 3.04485C55.4956 2.82554 55.55 2.6501 55.6045 2.43078C55.6045 2.2992 55.6045 2.16761 55.55 1.99216C55.4411 1.64126 54.842 1.42196 54.4063 1.68513C54.1885 1.81672 54.0251 1.99216 53.9162 2.16761C53.6983 2.56237 53.426 2.95714 53.2627 3.39576C52.9904 3.96597 52.718 4.53618 52.5002 5.15026C52.2823 5.63275 52.0645 6.15909 51.8467 6.64158C51.6833 7.03634 51.5744 7.4311 51.411 7.782C51.1931 8.35222 50.9753 8.92242 50.8119 9.49264C50.7575 9.66809 50.703 9.79967 50.6485 9.97513C50.5941 10.1944 50.5396 10.3699 50.4852 10.5892C50.3762 11.0278 50.2129 11.4226 49.8316 11.7735C49.6138 11.9489 49.5049 12.1682 49.5593 12.4314C49.5593 12.5191 49.5593 12.563 49.5593 12.6507C49.6138 12.9139 49.5049 13.1771 49.3415 13.4403C49.2325 13.6157 49.1236 13.7911 49.0147 14.0105C48.688 14.5368 48.3612 15.0632 47.871 15.5456C47.5443 15.8527 47.163 16.2036 46.6184 16.379C46.1283 16.5984 45.5837 16.6422 45.0391 16.5106C44.7123 16.4229 44.3855 16.2474 44.1677 16.072C44.1132 16.0281 44.0588 15.9404 44.0043 15.8527C43.9499 15.7211 44.0043 15.5895 44.1677 15.5018C44.2766 15.4579 44.3855 15.4141 44.44 15.3702C44.8757 15.1509 45.3114 14.9316 45.6926 14.6684C46.2372 14.3175 46.6729 13.9227 47.0541 13.4841C47.4353 13.0455 47.7077 12.563 47.8166 12.0805C47.871 11.6858 47.871 11.291 47.6532 10.8962C47.3809 10.4138 46.8907 10.1067 46.1828 10.0628C45.9104 10.0628 45.6381 10.1067 45.4203 10.1506C45.0935 10.2383 44.8212 10.3699 44.4945 10.5015C44.0043 10.7208 43.5686 11.0278 43.1874 11.3787C42.8062 11.6858 42.4794 12.0367 42.0982 12.3876C42.0437 12.4314 41.9893 12.4753 41.9348 12.5191C41.7714 12.6069 41.608 12.563 41.608 12.4314C41.608 12.3876 41.608 12.2998 41.608 12.256C41.6625 12.0367 41.717 11.8612 41.8803 11.6858C42.1526 11.4226 42.4249 11.1594 42.6972 10.8962C42.9151 10.6769 43.1874 10.4576 43.4597 10.2383C43.8954 9.84354 44.3311 9.40491 44.7668 8.96628C45.2025 8.52766 45.6381 8.08904 45.9649 7.56269C46.1827 7.25565 46.4006 6.94862 46.6184 6.64158C46.8363 6.24682 47.1086 5.89591 47.163 5.45729C47.2175 5.28184 47.272 5.06253 47.3264 4.88708C47.4353 4.40459 47.3264 3.96597 46.8907 3.57121C46.6184 3.3519 46.3461 3.17645 45.9649 3.17645C45.5292 3.17645 45.148 3.22031 44.7668 3.39576C44.3856 3.57121 44.0588 3.83439 43.7865 4.09756C43.4052 4.49233 43.0785 4.93095 42.8062 5.36957C42.4249 5.89592 42.1527 6.46613 41.9348 7.03634C41.717 7.47496 41.5536 7.95745 41.3902 8.39608C41.2268 8.79084 41.0634 9.22946 40.9 9.62422C40.7367 10.019 40.6278 10.3699 40.4644 10.7646C40.4099 10.9401 40.301 11.0717 40.1376 11.2033C40.0832 11.2471 40.0287 11.291 39.9742 11.3349C39.7019 11.6419 39.5385 11.6858 39.8108 12.1682C39.8653 12.2998 39.9198 12.4314 39.8653 12.563C39.8109 12.9139 39.7564 13.2648 39.5385 13.5718C39.4841 13.6157 39.4841 13.6596 39.4841 13.7034C39.4296 13.9227 39.3751 14.0982 39.2662 14.3175C38.9939 14.9316 38.7216 15.5457 38.2859 16.1159C38.0681 16.4668 37.7413 16.7299 37.3601 16.9931C37.1967 17.1247 36.9789 17.1686 36.761 17.2124C36.5432 17.2124 36.3798 17.1686 36.2709 17.037C36.1075 16.8177 35.9441 16.5984 35.9441 16.3352C35.9441 15.9843 35.9441 15.6772 35.9441 15.3263C35.9986 14.8438 36.1075 14.4052 36.2164 13.9227C36.2164 13.835 36.2709 13.7912 36.2709 13.7034C36.4887 13.3087 36.5977 12.87 36.761 12.4314C36.8155 12.2121 36.8699 11.9928 36.8155 11.7735C36.761 11.3787 36.3253 11.1594 35.8352 11.3349C35.7263 11.3787 35.5629 11.4226 35.454 11.4664C35.2361 11.5542 35.0728 11.5542 34.8549 11.5542C34.2014 11.5103 33.6023 11.598 33.0032 11.7296C32.8943 11.7735 32.7854 11.7735 32.6765 11.8173C32.1863 12.0367 31.6962 12.2121 31.2605 12.5191C30.498 13.0016 29.9534 13.5718 29.4088 14.1859C29.2999 14.3614 29.1365 14.4929 29.0276 14.6684C28.8642 15.0193 28.7008 15.3263 28.483 15.6772C28.2651 16.072 28.0473 16.4229 27.7205 16.7738C27.5571 16.9492 27.3393 17.1686 27.1759 17.344C26.6313 17.9581 25.9778 18.4406 25.2698 18.8792C25.2153 18.9231 25.1609 18.9231 25.1609 18.9231C24.8886 19.0546 24.5618 19.1862 24.2895 19.274C23.6904 19.5371 23.0369 19.6249 22.3289 19.6249C22.1655 19.6249 22.0566 19.581 21.8932 19.5371C21.4031 19.4055 21.1852 19.0985 21.1308 18.7037C21.0763 18.3967 21.1853 18.2213 21.512 18.0897C21.7843 17.9581 22.0566 17.8704 22.3289 17.7826C22.6557 17.651 22.9825 17.5633 23.3092 17.4317C23.3637 17.3879 23.4181 17.3879 23.5271 17.344C24.0172 17.0808 24.4529 16.8177 24.8341 16.5106C25.4876 16.0281 26.0322 15.5018 26.359 14.8C26.6313 14.3175 26.6313 13.835 26.4679 13.3087C26.3046 12.8262 25.5966 12.4314 24.9975 12.4314C24.2895 12.4314 23.636 12.563 23.0369 12.8262C22.7101 13.0016 22.4379 13.1771 22.1656 13.3525C21.2942 14.0105 20.6406 14.8 20.1505 15.6772C19.8782 16.1159 19.7148 16.5545 19.497 16.9931C19.388 17.2563 19.2791 17.5195 19.1157 17.7388C18.8979 18.0458 18.68 18.3528 18.4622 18.6599C18.1354 19.0108 17.8087 19.3617 17.4275 19.6687C17.2096 19.8442 16.8828 20.0196 16.6105 20.1073C16.3927 20.1951 16.2293 20.1512 16.0659 20.0635C15.957 20.0196 15.9026 19.888 15.9026 19.8003C15.7936 19.4933 15.957 19.1862 16.0659 18.9231C16.2838 18.3967 16.6105 17.9142 16.9373 17.4317C17.2096 17.037 17.4819 16.6422 17.5908 16.1597C17.6453 15.9404 17.6453 15.765 17.5364 15.5456C17.373 15.3263 17.2096 15.0632 16.8828 14.9316C16.3927 14.6684 15.9026 14.493 15.358 14.3175C15.1946 14.2736 15.0312 14.2298 14.8678 14.1421C14.4321 13.9666 14.3777 13.835 14.4321 13.4841C14.4866 13.1771 14.4866 12.87 14.3776 12.563C14.2687 12.256 13.9419 12.0805 13.5607 12.1244C13.234 12.1682 12.9072 12.256 12.6894 12.4314C12.1448 12.87 11.8724 13.4841 12.1992 14.0982C12.2537 14.1859 12.3081 14.2736 12.3626 14.3614C12.4715 14.5807 12.526 14.8 12.4715 15.0193C12.3626 15.4141 12.1447 15.765 12.0358 16.1597C11.8724 16.5984 11.6546 16.9931 11.4368 17.4317C11.3278 17.6949 11.1645 17.9142 10.9466 18.1335C10.5109 18.616 10.0208 19.0108 9.47616 19.4494C9.36724 19.5371 9.25834 19.581 9.09496 19.6249C8.98604 19.6687 8.82266 19.6248 8.82266 19.4933C8.82266 19.4055 8.82264 19.3178 8.8771 19.274C8.98602 19.0108 9.14941 18.7476 9.25834 18.4844C9.36726 18.0897 9.53063 17.6511 9.58509 17.2563C9.63955 16.6861 9.58511 16.1159 9.36726 15.5456C9.25834 15.1947 8.98604 14.8877 8.55035 14.7123C8.22359 14.5807 7.95126 14.4929 7.57003 14.4929C7.02542 14.5368 6.48083 14.6684 5.99069 14.8877C5.44608 15.1947 4.95593 15.5456 4.52024 15.9843C4.08455 16.4229 3.59439 16.9054 3.21317 17.3879C3.15871 17.4756 3.04978 17.5633 2.94086 17.651C2.83194 17.7388 2.66856 17.6949 2.66856 17.6072C2.66856 17.4756 2.6141 17.344 2.66856 17.2124C2.72302 16.9931 2.83195 16.7738 2.88642 16.5545C2.99534 16.2475 3.21317 16.0281 3.48547 15.8088C4.24792 15.1947 5.01037 14.6245 5.6639 13.9666C6.53528 13.0894 7.35221 12.2121 7.89682 11.2033C8.11466 10.8524 8.27802 10.4576 8.38694 10.0628C8.4414 9.79967 8.44141 9.58036 8.49587 9.31719C8.55033 8.96629 8.44141 8.65925 8.22357 8.35221C7.8968 7.95745 7.46112 7.782 6.86205 7.782C6.3719 7.782 5.93622 7.91359 5.60946 8.1329C5.28269 8.35221 4.95594 8.57153 4.7381 8.87856C4.24795 9.49264 3.81224 10.1067 3.48547 10.7646C3.21317 11.3349 2.94088 11.9051 2.72304 12.4753C2.5052 12.9578 2.34181 13.3964 2.17843 13.8789C2.06951 14.1859 1.90611 14.5368 1.85165 14.8439C1.74273 15.1509 1.52488 15.4579 1.30704 15.7211C1.25258 15.765 1.25261 15.8088 1.19814 15.8527C0.980301 16.072 0.925834 16.3352 1.08922 16.5984C1.14368 16.6422 1.14368 16.7299 1.19814 16.8177C1.19814 16.9054 1.25259 16.9931 1.25259 17.0808C1.25259 17.344 1.19812 17.5633 1.14366 17.7826C1.03474 18.1774 0.925834 18.616 0.816912 19.0108C0.762451 19.1862 0.707997 19.3617 0.653536 19.4933C0.544615 19.9319 0.435673 20.3705 0.326752 20.853C0.272291 20.9846 0.272284 21.16 0.217823 21.2916C0.0544408 21.7302 0.0544608 22.1689 0 22.5636C0 22.7391 6.64642e-06 22.8707 0.108928 23.0461C0.381232 23.4409 0.871379 23.4409 1.19814 23.09L1.25259 23.0461C1.30705 22.9145 1.41597 22.8268 1.41597 22.6952C1.57935 22.3005 1.68828 21.9496 1.90613 21.5987C2.06951 21.3355 2.17843 21.0723 2.34181 20.8091C2.55965 20.4582 2.7775 20.0635 2.99534 19.7126C3.43103 19.0985 3.92116 18.5283 4.41131 17.9581C4.90146 17.4756 5.33714 16.9492 5.93621 16.5545C6.15405 16.379 6.42635 16.2036 6.75312 16.072C6.86204 15.9843 7.02545 15.9843 7.18883 15.9404C7.35221 15.8966 7.51559 15.9843 7.62451 16.1159C7.73343 16.2475 7.84234 16.4229 7.84234 16.5545C7.84234 16.9054 7.89682 17.2563 7.73344 17.5633C7.73344 17.651 7.73342 17.6949 7.67896 17.7826C7.6245 17.9581 7.57006 18.1774 7.46114 18.3528C7.46114 18.4406 7.40667 18.4844 7.35221 18.5722C7.0799 19.3178 6.64422 20.0196 6.09962 20.6776C5.71839 21.0723 5.22822 21.3355 4.57469 21.4232C4.30238 21.4671 3.97563 21.4671 3.70333 21.5109C3.48548 21.5548 3.26765 21.5548 3.10427 21.5987C2.61413 21.6864 2.45072 21.9934 2.39626 22.3005C2.39626 22.3882 2.39628 22.4759 2.45074 22.5198C2.66858 22.8268 3.04978 23.0023 3.48547 23.0461C3.8667 23.09 4.19346 23.0461 4.57469 22.9584C5.01037 22.8707 5.39161 22.6952 5.77283 22.5198C6.20852 22.3005 6.64422 22.0811 7.0799 21.9057C7.51559 21.7302 8.00574 21.5548 8.44142 21.3794C8.76819 21.2039 9.14939 21.0723 9.47616 20.8969C9.96631 20.6337 10.402 20.3267 10.7832 20.0196C11.4368 19.4933 12.0358 18.8792 12.4715 18.2651C12.7983 17.8265 13.0706 17.3879 13.234 16.8615C13.2884 16.5983 13.4518 16.379 13.5063 16.1159C13.5607 15.9843 13.6152 15.8527 13.6696 15.765C13.833 15.4579 13.9964 15.4141 14.4321 15.4579C14.7589 15.5018 15.0312 15.6334 15.3035 15.7211C15.3579 15.7211 15.3579 15.765 15.4124 15.765C15.6847 15.8965 15.7936 16.1159 15.6847 16.3352C15.6302 16.4229 15.5758 16.5106 15.5213 16.5984C15.4124 16.7738 15.3035 16.9054 15.249 17.0808C15.0856 17.3001 14.9767 17.5633 14.8133 17.7826C14.541 18.2651 14.2687 18.7037 14.2143 19.2301C14.1598 19.4494 14.1598 19.6687 14.1053 19.888C13.9964 20.4582 14.3232 20.853 14.8678 21.2039C15.5213 21.5987 16.2838 21.6425 17.0462 21.3794C17.7542 21.1162 18.3533 20.7214 18.8979 20.2828C19.0613 20.1512 19.2246 19.9758 19.388 19.8442C19.497 19.7564 19.6059 19.7564 19.6603 19.8442C19.7148 19.888 19.7693 19.9758 19.8237 20.0635C20.2594 20.546 20.9129 20.853 21.6754 20.9407C22.7646 21.0723 23.7994 20.8091 24.7797 20.546C24.8341 20.546 24.8886 20.5021 24.943 20.5021C25.4876 20.2389 26.0323 20.0196 26.5769 19.7126C26.9581 19.4494 27.3393 19.1862 27.7205 18.9231C27.775 18.8792 27.8295 18.8353 27.8839 18.7476C27.9929 18.7037 28.1018 18.7037 28.1562 18.7915C28.2107 18.8353 28.2107 18.9231 28.2651 18.9669C28.4285 19.2301 28.5375 19.4494 28.7553 19.6687C28.9187 19.8442 29.1365 19.9758 29.4088 20.0196C29.7901 20.1073 30.1168 20.1512 30.498 20.1073C31.0427 20.0196 31.5873 19.888 32.0229 19.581C32.6765 19.1424 33.2211 18.6599 33.6568 18.0897C33.7657 17.9581 33.8201 17.8704 33.9291 17.7826C33.9835 17.6949 34.0924 17.6072 34.2558 17.6072C34.4192 17.651 34.5281 17.7388 34.6371 17.8704C34.746 17.9581 34.8004 18.0458 34.9094 18.1335C35.454 18.5722 36.1075 18.7037 36.8155 18.5722C37.1967 18.5283 37.5779 18.3967 37.9047 18.1774C37.9592 18.1335 38.0136 18.0897 38.1226 18.0897C38.177 18.0897 38.2315 18.0458 38.3404 18.0458C38.3404 18.1335 38.3404 18.1774 38.3404 18.2213C38.3404 18.3528 38.3404 18.4406 38.3404 18.5722C38.3948 18.7476 38.5583 18.9231 38.7761 18.9669C39.1029 19.0546 39.593 18.9669 39.7564 18.7037C39.8653 18.5283 39.9742 18.3528 40.0287 18.1774C40.1376 17.8265 40.1921 17.5195 40.301 17.1686C40.3555 16.7738 40.5188 16.379 40.6277 15.9843C40.6822 15.8527 40.6822 15.765 40.7367 15.6334C41.1179 14.9754 41.5536 14.3175 42.1526 13.7473C42.5339 13.3525 42.9696 13.0016 43.4053 12.6507C43.841 12.2998 44.3311 11.9489 44.8757 11.6858C45.0935 11.5542 45.3114 11.5103 45.5837 11.4664C45.856 11.4226 46.0194 11.5103 46.0738 11.7296C46.0738 11.8612 46.1283 11.9928 46.0738 12.0805C45.9649 12.2998 45.856 12.563 45.6926 12.7823C45.4747 13.0894 45.148 13.3525 44.8212 13.6157C44.4945 13.835 44.1677 14.0543 43.8409 14.2736C43.4053 14.5368 42.9151 14.8439 42.4249 15.0632C42.1526 15.1948 41.9348 15.3263 41.8259 15.5018C41.7714 15.5895 41.717 15.6772 41.717 15.765C41.717 15.9404 41.7714 16.1159 41.8803 16.2913C42.1526 16.6861 42.4794 16.9931 42.8607 17.3001C43.3508 17.651 43.8954 17.9142 44.5489 18.0458C45.4203 18.2651 46.2917 18.1335 47.0541 17.8265C47.4898 17.651 47.871 17.4317 48.1978 17.1686C48.2523 17.1247 48.3067 17.0808 48.3612 17.0808C48.4156 17.0808 48.4701 17.0808 48.579 17.037C48.579 17.0808 48.6335 17.1247 48.6335 17.1686C48.579 17.5195 48.579 17.8265 48.4701 18.1774C48.4156 18.5283 48.3067 18.923 48.3067 19.274C48.3067 19.3617 48.3067 19.4494 48.2523 19.5371C48.1433 20.2389 48.1433 20.8969 48.1433 21.5987C48.1433 21.7741 48.1978 21.9496 48.1978 22.125C48.1978 22.6952 48.3067 23.2654 48.4156 23.8357C48.5246 24.362 48.8513 24.8445 49.2325 25.327C49.6138 25.7656 50.2128 25.941 50.8664 25.8533C51.1931 25.8095 51.5199 25.6779 51.8467 25.5024C52.2279 25.2831 52.5002 25.0199 52.718 24.7129C53.1537 24.0988 53.3716 23.397 53.4805 22.6952C53.4805 22.6075 53.4805 22.5198 53.535 22.4759C53.6439 22.0373 53.6439 21.6425 53.6439 21.2039C53.6439 21.1162 53.6439 20.9846 53.6439 20.8969C53.6983 20.5898 53.6983 20.2828 53.6439 19.9758C53.5894 19.581 53.5894 19.1862 53.535 18.7915C53.3716 17.8265 53.2082 16.9054 52.9359 15.9843C52.8814 15.8527 52.8814 15.765 52.8814 15.6334C52.8814 15.3702 52.9904 15.2386 53.2627 15.1947C53.3716 15.1509 53.535 15.1509 53.6439 15.1509C53.9707 15.1509 54.2974 15.0632 54.6242 14.9316C54.7876 14.8438 54.951 14.8 55.1143 14.7561C55.2233 14.7123 55.3322 14.6684 55.4411 14.7561C55.4411 14.8 55.4955 14.8438 55.4955 14.9316C55.4955 15.0632 55.55 15.1947 55.55 15.3702C55.6589 15.8088 55.7679 16.2036 56.2036 16.5545C56.4214 16.7738 56.6937 16.9054 57.0749 16.9492C57.8918 17.0808 58.5998 16.9493 59.3078 16.5984C59.8524 16.2913 60.2881 15.9404 60.6693 15.5456C60.8872 15.3263 61.105 15.0632 61.2684 14.8439C61.3773 14.7123 61.4862 14.5807 61.7041 14.4929C61.9219 14.5368 62.0308 14.6245 62.1398 14.7123C62.2487 14.8 62.3031 14.8877 62.4121 14.9754C62.6844 15.1947 62.9567 15.4141 63.3923 15.4579C63.7736 15.5018 64.1548 15.5456 64.5905 15.4141C65.0806 15.2825 65.5163 15.107 65.8431 14.8439C66.3332 14.4491 66.7689 14.0982 67.0957 13.6157C67.2591 13.3087 67.4769 13.0455 67.5858 12.7385C67.8037 12.2998 67.9671 11.9051 68.1849 11.4664C68.4572 10.984 68.675 10.5015 68.8384 10.019C68.8929 9.8874 69.0018 9.75581 69.0563 9.62422C69.1652 9.49263 69.383 9.49263 69.492 9.62422C69.5464 9.66808 69.6009 9.71195 69.6009 9.79968C69.7098 9.97513 69.7643 10.1506 69.8732 10.326C69.9821 10.5892 70.091 10.8962 70.2 11.1594C70.3089 11.4664 70.4178 11.7735 70.5267 12.1244C70.6357 12.4753 70.6356 12.7823 70.5812 13.1332C70.4723 13.4841 70.3089 13.7473 69.9277 13.9666C69.7098 14.0982 69.492 14.1859 69.2741 14.1859C69.0563 14.1859 68.8384 14.1859 68.6206 14.1421C68.3483 14.0982 68.076 14.0982 67.8037 14.1421C67.3135 14.2298 67.1501 14.6684 67.4769 14.9754C67.6403 15.107 67.8037 15.2386 68.0215 15.2386C68.4027 15.2825 68.784 15.3702 69.2197 15.3702C70.2544 15.3702 71.1258 15.0632 72.0516 14.7561C72.4329 14.6245 72.7596 14.4491 73.0864 14.2736C73.7944 13.9227 74.339 13.4841 74.8836 13.0455C74.9381 13.0016 74.9925 12.9578 75.047 12.9139C75.1559 12.8262 75.3193 12.87 75.3737 12.9578C75.4282 13.0455 75.4282 13.1332 75.4827 13.1771C75.5371 13.3087 75.5916 13.4841 75.7005 13.6157C75.8639 13.7912 76.0273 13.9666 76.2451 14.1421C76.5719 14.3614 76.8987 14.5368 77.3343 14.5807C77.9879 14.6245 78.6414 14.5368 79.2405 14.2736C80.0029 13.9227 80.7109 13.528 81.31 13.0016C81.7457 12.6069 82.1269 12.1682 82.4536 11.7296C82.8349 11.2471 83.1616 10.7208 83.434 10.1944C83.5973 9.8874 83.7607 9.58036 83.8696 9.27332C84.033 8.4838 84.033 8.26448 83.9241 8.08903ZM42.6428 8.35221C42.8606 7.91359 43.024 7.47496 43.2963 7.03634C43.5686 6.46613 43.9499 5.93978 44.2766 5.36957C44.44 5.06253 44.7123 4.75549 44.9846 4.44846C45.0935 4.36073 45.2025 4.273 45.3658 4.18528C45.5292 4.09756 45.7471 4.14143 45.8015 4.31688C45.8015 4.4046 45.856 4.49233 45.8015 4.53619C45.5837 5.15026 45.3114 5.76432 44.9302 6.33454C44.4945 6.99247 44.0043 7.60655 43.5686 8.22063C43.3508 8.4838 43.1329 8.70311 42.9151 8.96628C42.8606 9.01014 42.8606 9.05401 42.8062 9.05401C42.7517 9.05401 42.6973 9.09787 42.6428 9.05401C42.5883 9.05401 42.5339 8.96629 42.5339 8.92243C42.5339 8.87857 42.5339 8.79083 42.5339 8.74697C42.5339 8.65924 42.5883 8.4838 42.6428 8.35221ZM21.8388 15.7211C22.0566 15.3702 22.2745 14.9754 22.6012 14.6684C22.7646 14.4929 22.928 14.3614 23.0914 14.2298C23.3637 14.0105 23.6904 13.7473 24.0172 13.5718C24.1806 13.4841 24.344 13.4403 24.5618 13.3964C24.8341 13.3525 25.0519 13.528 24.9975 13.7473C24.943 13.8789 24.8886 14.0105 24.8341 14.0982C24.5073 14.6245 24.0717 15.0632 23.5271 15.4579C23.2003 15.7211 22.8191 15.9404 22.3834 16.1159C22.2745 16.1597 22.1655 16.2036 22.1111 16.2036C21.8932 16.2474 21.7843 16.1597 21.7843 15.9843C21.7843 15.9404 21.7843 15.9404 21.7843 15.8527C21.7843 15.8527 21.8388 15.8088 21.8388 15.7211ZM3.81226 13.2209C3.92118 12.9139 3.97563 12.6507 4.13901 12.3437C4.19347 12.256 4.24792 12.1244 4.30238 12.0367C4.62915 11.4226 4.90147 10.8085 5.33715 10.2383C5.50053 9.97513 5.66392 9.71194 5.88176 9.44877C6.04514 9.22946 6.20852 9.05401 6.42637 8.8347C6.48083 8.74697 6.58975 8.70311 6.69867 8.65925C6.86205 8.57153 7.02544 8.61538 7.0799 8.79083C7.0799 8.87856 7.13436 9.01015 7.0799 9.09788C7.0799 9.1856 7.02542 9.27333 7.02542 9.36105C6.97096 9.84354 6.69867 10.2822 6.42637 10.7208C5.88176 11.598 5.17377 12.3876 4.52024 13.1771C4.41132 13.3087 4.24793 13.3964 4.13901 13.4841C4.08455 13.528 4.03009 13.528 3.97563 13.528C3.86671 13.528 3.8667 13.4403 3.8667 13.3964C3.81224 13.3087 3.81226 13.2648 3.81226 13.2209ZM34.4737 13.8789C34.1469 14.4052 33.8202 14.9754 33.4934 15.5018C33.1122 16.1159 32.6765 16.7299 32.1863 17.3001C31.914 17.6072 31.5873 17.9142 31.206 18.1774C30.9882 18.309 30.7703 18.3528 30.5525 18.3967C30.3347 18.3967 30.1168 18.3528 30.0079 18.2213C29.8445 18.0458 29.7356 17.8265 29.7356 17.6072C29.7356 17.3001 29.7901 16.9492 29.7901 16.6422C29.8445 16.379 29.9534 16.072 30.1168 15.8527C30.2802 15.5895 30.3891 15.3702 30.498 15.107C30.6614 14.6684 30.9882 14.3175 31.315 13.9666C31.6417 13.6157 32.0774 13.2648 32.5676 13.0455C32.8943 12.87 33.2755 12.6946 33.6568 12.6069C33.8201 12.563 33.9291 12.563 34.0924 12.563C34.4737 12.563 34.6915 12.7385 34.746 13.0455C34.746 13.0894 34.746 13.1332 34.746 13.1771C34.6371 13.3087 34.6371 13.6157 34.4737 13.8789ZM52.119 21.5109C52.0645 21.9057 52.0101 22.3005 51.9011 22.6952C51.7922 23.0461 51.7377 23.4409 51.411 23.7918C51.3565 23.8795 51.2476 23.9672 51.1387 24.055C50.9208 24.1866 50.6485 24.1427 50.4307 23.9672C50.1584 23.6602 50.1039 23.3532 50.1039 23.0461C50.0495 22.5198 50.0495 21.9934 50.0495 21.4232C50.0495 21.3355 50.0495 21.2478 50.0495 21.16C49.995 20.5898 50.0495 19.9758 50.1039 19.4055V19.3617C50.1039 18.9231 50.2129 18.4406 50.2673 17.9142C50.2673 17.7388 50.3218 17.4756 50.3218 17.1686C50.3218 17.1247 50.3218 17.037 50.3218 16.9931C50.4851 16.6422 50.4852 16.2913 50.5396 15.9404C50.5941 15.765 50.6485 15.5895 50.6485 15.4141V15.3702C50.703 15.2825 50.7574 15.1947 50.8664 15.1947C51.0298 15.1947 51.0842 15.2825 51.1387 15.3702C51.3021 15.5895 51.411 15.8088 51.4655 16.0281C51.6833 16.9492 51.9011 17.8265 51.9011 18.7915C51.9011 18.9231 51.9011 19.0985 51.9556 19.2301C51.9556 19.3178 51.9556 19.3617 51.9556 19.4494C52.119 20.1073 52.2279 20.8091 52.119 21.5109ZM62.0853 10.4137C61.813 10.8962 61.5407 11.4226 61.2139 11.9051C60.8872 12.4314 60.5059 12.9578 60.1792 13.4403C59.9613 13.7912 59.6346 14.142 59.3078 14.4491C59.1444 14.6245 58.9266 14.7561 58.7087 14.9316C58.5454 15.0632 58.3275 15.107 58.1097 15.107C57.8374 15.107 57.6195 15.0193 57.4561 14.8439C57.3472 14.7123 57.2927 14.5807 57.2383 14.4052C57.1838 14.0982 57.1838 13.7473 57.2928 13.4403C57.2928 13.3964 57.2928 13.3525 57.2928 13.3087C57.3472 12.7823 57.6195 12.2998 57.8918 11.8173C58.1641 11.291 58.5453 10.8085 59.0355 10.3699C59.4167 10.019 59.8524 9.71195 60.397 9.49264C60.5059 9.44877 60.5604 9.40492 60.6693 9.36105C60.9416 9.22947 61.2139 9.1856 61.4862 9.14174C61.9219 9.09788 62.1942 9.27332 62.2487 9.62422C62.2487 9.93125 62.1942 10.1944 62.0853 10.4137Z" fill="white"/>
<path d="M67.6949 29.5373C67.586 29.3619 67.3681 29.2742 67.0958 29.2742C66.7146 29.2742 66.4967 29.4496 66.3878 29.6689C66.2244 29.976 66.0611 30.2392 65.8977 30.5462C65.6798 31.0287 65.2986 31.4674 64.8085 31.8183C64.5362 32.0376 64.3183 32.2569 64.046 32.4762C63.9371 32.564 63.8282 32.6517 63.6648 32.6955C63.5014 32.7394 63.338 32.6955 63.338 32.564C63.338 32.4762 63.338 32.3885 63.3925 32.3446C63.5559 31.9937 63.7737 31.6428 63.8826 31.248C63.9916 30.941 64.1005 30.5901 64.1005 30.283C64.1005 30.2392 64.1005 30.1514 64.1005 30.1076C64.2094 29.5812 64.1005 29.0987 63.8826 28.5723C63.7737 28.353 63.6648 28.1337 63.3925 27.9582C62.9568 27.6512 62.4122 27.4757 61.7586 27.5635C60.9417 27.6951 60.2882 28.0021 59.7436 28.4408C59.1446 28.9233 58.5999 29.4496 58.1642 30.0198C57.9464 30.2392 57.783 30.4585 57.5652 30.7217C57.5107 30.7655 57.4562 30.7655 57.4018 30.7655C57.2929 30.7655 57.2384 30.7217 57.2384 30.6339C57.1839 30.4585 57.184 30.283 57.2929 30.1076C57.3473 30.0198 57.3473 29.9321 57.4018 29.8444C57.4562 29.4057 57.7286 29.0987 58.1098 28.7917C58.5455 28.4407 58.9812 28.0898 59.4168 27.6951C60.2337 26.9932 60.9418 26.2914 61.5408 25.5019C62.031 24.8878 62.4667 24.2298 62.739 23.528C62.9023 23.0894 63.0113 22.6068 63.0113 22.1682C63.0113 21.8612 62.9023 21.598 62.739 21.3348C62.4122 20.94 61.9765 20.7207 61.3774 20.7207C60.8328 20.7207 60.3427 20.8962 59.9614 21.2032C59.5802 21.4664 59.2535 21.8173 58.9812 22.1682C58.4366 22.9139 58.0009 23.6596 57.6196 24.493C57.4018 24.9755 57.2384 25.458 57.0206 25.9844C56.8572 26.4669 56.6394 26.9055 56.476 27.388C56.3126 27.9144 56.0947 28.353 55.7135 28.7917C55.3323 29.1864 55.3323 29.2742 55.6046 29.7128C55.659 29.8005 55.7135 29.9321 55.7135 30.0198C55.659 30.4585 55.659 30.8533 55.4412 31.248C55.4412 31.2919 55.4412 31.3358 55.3868 31.3796C55.3323 31.5112 55.2778 31.6867 55.2233 31.8183C55.0055 32.213 54.7877 32.6517 54.5698 33.0465C54.2975 33.529 53.9708 33.9676 53.4806 34.3624C53.3717 34.4501 53.2628 34.5378 53.1538 34.5817C52.7726 34.7572 52.3914 34.6256 52.228 34.3185C52.1735 34.1869 52.1191 34.0115 52.0646 33.836C52.0102 33.4412 51.9557 33.0465 52.0102 32.6517C52.1191 32.1692 52.0646 31.6867 52.228 31.248C52.3369 30.9849 52.3369 30.7217 52.4459 30.4585C52.5003 30.3269 52.5003 30.1953 52.4459 30.0637C52.3369 29.6689 51.6834 29.4496 51.2477 29.7128C50.9754 29.8444 50.812 30.0637 50.7576 30.283C50.6487 30.5901 50.5397 30.941 50.3764 31.248C50.213 31.6428 50.0496 32.0814 49.8862 32.4762C49.7773 32.6955 49.7228 32.9587 49.5594 33.178C49.2327 33.7483 48.9059 34.3185 48.5247 34.8449C48.1979 35.2396 47.8167 35.5906 47.3265 35.8537C47.0542 35.9853 46.7819 36.0731 46.4552 36.1169C46.1284 36.1608 45.8561 36.0731 45.6383 35.8537C45.5293 35.7222 45.4204 35.5906 45.366 35.459C45.3115 35.1958 45.257 34.9765 45.3115 34.7133C45.366 34.4062 45.4204 34.0992 45.4749 33.7921C45.5293 33.6167 45.5838 33.4412 45.6383 33.3096C45.6927 33.0903 45.8017 32.8271 45.8561 32.6078C45.8561 32.564 45.9106 32.4762 45.9106 32.4324C46.0739 32.0814 46.1829 31.7744 46.3462 31.4235C46.4552 31.1603 46.6186 30.8971 46.7275 30.6339C46.8364 30.4146 46.9453 30.1953 47.0542 29.9321C47.0542 29.8444 47.1087 29.7567 47.0542 29.7128C46.9453 29.4935 46.6185 29.318 46.3462 29.318C46.0195 29.318 45.7472 29.3619 45.5838 29.5373C45.4749 29.6689 45.3115 29.7567 45.257 29.8883C44.9847 30.3269 44.7124 30.7655 44.4946 31.248C44.2223 31.906 43.95 32.6078 43.7321 33.3096C43.7321 33.3535 43.6777 33.3974 43.6777 33.4412C43.2965 34.1869 42.8063 34.9326 42.2072 35.5906C41.8805 35.9415 41.5537 36.2485 41.118 36.5117C40.8457 36.6872 40.4645 36.7749 40.1377 36.8187C39.5931 36.8626 39.2663 36.6872 38.994 36.3363C38.9396 36.2485 38.8307 36.1608 38.7762 36.0731C38.5584 35.7222 38.4494 35.3274 38.4494 34.9326V34.8887C38.5583 34.6256 38.6673 34.3624 38.8851 34.1431C39.6476 33.3974 40.2466 32.6078 40.9002 31.8183C41.4992 31.0287 42.0983 30.2392 42.534 29.4057C42.6974 29.0987 42.9152 28.7478 43.0786 28.4408C43.242 28.046 43.4054 27.6512 43.5688 27.2564C43.7866 26.8616 43.8955 26.423 44.0044 26.0282C44.0589 25.8966 44.1134 25.8089 44.1134 25.6773C44.1134 25.4141 44.2768 25.1071 44.2223 24.8439C44.2223 24.8 44.2223 24.7562 44.2223 24.7123C44.3312 24.4053 44.2768 24.1421 44.2223 23.835C44.1678 23.4841 43.8955 23.2209 43.6232 23.0016C43.5143 22.9139 43.4054 22.87 43.2965 22.8262C42.6974 22.6068 42.0983 22.6507 41.4993 22.9139C41.1725 23.0455 40.9002 23.3087 40.6279 23.528C40.2466 23.8789 39.9199 24.2737 39.6476 24.7123C39.2663 25.3264 38.8851 25.9405 38.6128 26.5546C38.4494 26.8616 38.3405 27.1687 38.1771 27.5196C37.9048 28.046 37.7414 28.6162 37.5781 29.1864C37.5236 29.3619 37.5236 29.4935 37.4691 29.6689C37.3058 30.1076 37.2513 30.5462 37.1424 30.9849C37.0335 31.3358 37.0334 31.6867 36.979 32.0815C36.9245 32.3446 36.8701 32.6517 36.8701 32.9149C36.8701 33.1342 36.8156 33.3096 36.7067 33.4851C36.5978 33.6606 36.4889 33.8799 36.3255 34.0553C35.9442 34.5378 35.5086 35.0642 35.1273 35.5467C34.9639 35.7222 34.8006 35.9415 34.5827 36.1169C33.9837 36.6433 33.2756 37.1258 32.4587 37.5206C32.2954 37.6083 32.1864 37.6522 32.0231 37.7399C31.7508 37.8276 31.4784 37.8715 31.2606 37.9592C30.9338 38.0469 30.6615 38.0469 30.3348 38.0469C29.7357 38.0469 29.1366 37.696 29.0277 37.1697C28.9733 36.8626 28.9188 36.5994 28.9733 36.2924C29.0277 35.8976 29.1911 35.5028 29.3 35.1081V35.0642C29.6268 34.4501 30.008 33.836 30.4982 33.2658C30.8249 32.9149 31.2062 32.564 31.6963 32.3008C31.9141 32.1692 32.132 32.0814 32.4043 31.9937C32.6221 31.906 32.84 31.9499 33.0033 32.0815C33.1667 32.1692 33.1667 32.3446 33.1123 32.4762C33.0578 32.6517 32.9489 32.8271 32.7855 33.0026C32.6221 33.1781 32.5132 33.3535 32.4043 33.5728C32.3498 33.6605 32.3498 33.7044 32.3498 33.7921C32.3498 34.0992 32.5677 34.2308 32.84 34.3624C33.0578 34.4501 33.4935 34.4062 33.6569 34.2308C34.0926 33.8799 34.3649 33.4851 34.5827 33.0465C34.6372 32.9149 34.6372 32.7833 34.6916 32.6517C34.8006 32.213 34.7461 31.8621 34.3649 31.5112C34.0381 31.1603 33.6024 30.8971 33.0578 30.8533C32.9489 30.8533 32.84 30.8094 32.731 30.8094C32.4587 30.7655 32.1865 30.7655 31.9686 30.8533C31.5329 30.9849 31.0972 31.1164 30.716 31.3358C30.2803 31.5989 29.8991 31.8621 29.5723 32.1692C29.0822 32.564 28.7009 33.0465 28.3742 33.529C28.2108 33.7921 28.0474 34.0992 27.884 34.4062C27.6117 34.9765 27.3939 35.5467 27.3394 36.2047C27.285 36.7749 27.3939 37.3451 27.6117 37.9153C27.7207 38.1347 27.8296 38.3101 27.9929 38.5294C28.4286 38.9681 28.9732 39.2313 29.6268 39.3629C29.7901 39.4067 30.008 39.4067 30.1714 39.4067C30.9338 39.5383 31.6418 39.4067 32.3498 39.1874C32.731 39.0997 33.0578 38.9242 33.3846 38.7926C33.548 38.7049 33.6569 38.6172 33.8203 38.5294C34.2559 38.3101 34.6372 38.0469 34.964 37.7838C35.563 37.3451 36.1076 36.8188 36.5978 36.2924C36.6522 36.2047 36.7611 36.1169 36.9245 36.0292C36.979 36.0731 37.0335 36.0731 37.0335 36.1169C37.1968 36.3363 37.3058 36.5994 37.4691 36.8187C37.7959 37.3451 38.286 37.7399 38.994 38.0031C39.3208 38.1347 39.5931 38.1785 39.9743 38.1347C40.3555 38.0908 40.7368 38.0469 41.118 38.0031C41.4448 37.9592 41.7171 37.8276 41.9349 37.696C42.534 37.3451 43.0786 36.9503 43.4598 36.5117C43.7321 36.2485 43.7866 36.2485 44.0589 36.5117C44.2223 36.6872 44.4401 36.8626 44.658 36.9942C45.1481 37.2574 45.6383 37.4328 46.2918 37.389C46.8909 37.3451 47.5444 37.3013 48.0345 36.9942C48.3069 36.8188 48.6336 36.6433 48.8515 36.424C49.1782 36.1608 49.4505 35.8537 49.7228 35.5467C49.8317 35.4151 49.9407 35.2835 50.1041 35.1958C50.2674 35.0203 50.4853 35.0203 50.7031 35.1958C50.812 35.2835 50.921 35.3712 51.0299 35.459C51.4656 35.8099 51.9557 35.9853 52.5548 35.9415C52.9905 35.9415 53.4261 35.8538 53.8618 35.6783C53.9163 35.6344 54.0252 35.5906 54.0797 35.5906C54.1886 35.5467 54.352 35.5906 54.352 35.6783C54.4065 35.766 54.4064 35.8538 54.4064 35.8976C54.4609 36.1169 54.6787 36.2485 54.951 36.2924C55.2233 36.3363 55.3868 36.2047 55.5501 36.0731C55.6046 36.0292 55.6591 35.9853 55.6591 35.9415C55.768 35.766 55.8224 35.6344 55.8769 35.459C55.9313 35.3274 55.9858 35.1958 56.0403 35.0642C56.2581 34.6694 56.4215 34.3185 56.6393 33.9676C56.9661 33.2658 57.4562 32.6517 57.9464 31.9937C58.5455 31.248 59.1445 30.5462 59.8525 29.8883C60.2337 29.5373 60.615 29.2303 61.1051 29.011C61.2685 28.9232 61.4319 28.9233 61.5953 28.8794C61.8131 28.8355 61.9765 28.9233 62.0309 29.0548C62.0854 29.1864 62.1399 29.318 62.1944 29.4496C62.3033 29.8883 62.2488 30.3269 62.0854 30.7655C61.9765 31.0726 61.8131 31.3796 61.7042 31.6867C61.4864 32.3446 61.0507 32.9587 60.5605 33.529C60.1793 33.9676 59.6347 34.2746 58.8722 34.3185C58.5999 34.3185 58.3276 34.3624 58.0553 34.4062C57.8919 34.4062 57.6741 34.4501 57.5107 34.494C57.1295 34.5817 56.9116 34.7571 56.8027 35.0642C56.7483 35.3712 56.8572 35.5906 57.184 35.766C57.3473 35.8537 57.5652 35.9415 57.783 35.9853C58.0553 36.0292 58.3821 36.0292 58.6544 35.9853C59.199 35.8976 59.6891 35.766 60.1248 35.5028C60.5605 35.2835 60.9962 35.0642 61.4319 34.8449C61.8676 34.6694 62.3577 34.494 62.7934 34.3185C63.0657 34.1869 63.338 34.0992 63.5559 33.9676C63.9916 33.7044 64.4272 33.4851 64.8629 33.178C65.3531 32.8271 65.8432 32.3885 66.2244 31.9937C66.6601 31.5112 67.0414 30.9848 67.3681 30.4585C67.4771 30.2392 67.5315 30.0198 67.5315 29.8005C67.8038 29.7567 67.8038 29.6251 67.6949 29.5373ZM58.3821 26.3791C58.491 25.9844 58.7088 25.6335 58.8722 25.2825C59.0901 24.8439 59.3079 24.4053 59.5802 23.9666C59.907 23.4403 60.2337 22.9139 60.6694 22.4314C60.7784 22.2998 60.8873 22.2121 61.0507 22.0805C61.1051 22.0366 61.1596 21.9928 61.214 21.9928C61.3774 21.9489 61.5953 21.9928 61.5953 22.1682C61.5953 22.2559 61.5953 22.3437 61.5953 22.3875C61.5953 22.5191 61.5408 22.6507 61.5408 22.7823C61.4864 23.0455 61.4319 23.3525 61.2685 23.5719C61.0507 23.835 60.9417 24.1421 60.7784 24.4053C60.6694 24.6246 60.5061 24.8 60.3427 25.0194C59.907 25.5019 59.5258 26.0282 59.0901 26.5107C58.9812 26.5985 58.8722 26.6862 58.7633 26.7739C58.7088 26.8178 58.5999 26.8178 58.5455 26.8178C58.4366 26.8178 58.4366 26.7301 58.4366 26.6862C58.3276 26.5985 58.3821 26.5107 58.3821 26.3791ZM38.7217 32.3446C38.7217 32.2569 38.7217 32.1692 38.7217 32.0815C38.7217 31.9937 38.7762 31.906 38.7762 31.906C38.8307 31.5112 38.9396 31.2042 39.0485 30.8533C39.103 30.7217 39.103 30.6339 39.103 30.5023C39.2119 30.1076 39.3208 29.6689 39.4842 29.2742C39.6476 28.8794 39.7565 28.4846 39.9743 28.0898C40.1922 27.6073 40.4645 27.1687 40.7368 26.6862C41.0091 26.2037 41.3359 25.7212 41.6626 25.2387C41.7715 25.0632 41.9349 24.8878 42.0983 24.7123C42.1528 24.6246 42.3161 24.5369 42.4251 24.493C42.534 24.4053 42.6974 24.4491 42.8063 24.5369C42.8608 24.6246 42.9152 24.7123 42.9152 24.8C42.9697 25.2825 42.9697 25.7651 42.7518 26.2037C42.6974 26.2914 42.6974 26.3791 42.6974 26.423C42.4795 27.1687 42.1528 27.8705 41.826 28.5285C41.6082 28.9671 41.3358 29.4057 41.0635 29.8005C40.6279 30.4146 40.1922 31.0287 39.7565 31.6428C39.6476 31.8183 39.5386 31.9937 39.4297 32.1692C39.3753 32.2569 39.2663 32.3446 39.1574 32.3885C38.8851 32.4762 38.7217 32.4324 38.7217 32.3446Z" fill="white"/>
</svg>
