<svg width="45" height="33" viewBox="0 0 45 33" fill="none" xmlns="http://www.w3.org/2000/svg">
<path d="M22.5001 10.5412C25.216 7.66736 29.0389 5.95346 33.0467 5.95346H38.1882C34.075 2.60484 28.459 0.680176 22.5001 0.680176C16.5413 0.680176 10.9517 2.57847 6.8385 5.95346H11.9536C15.7005 5.95355 19.758 7.66736 22.5001 10.5412Z" fill="#C76753"/>
<path d="M11.8656 16.5C9.67711 16.5 7.91064 18.2665 7.91064 20.455C7.91064 22.6435 9.67711 24.4099 11.8656 24.4099C14.0541 24.4099 15.8206 22.6435 15.8206 20.455C15.8206 18.2665 14.054 16.5 11.8656 16.5ZM11.8656 21.7733C11.1273 21.7733 10.5473 21.1933 10.5473 20.455C10.5473 19.7166 11.1273 19.1366 11.8656 19.1366C12.604 19.1366 13.1839 19.7166 13.1839 20.455C13.1839 21.1933 12.6039 21.7733 11.8656 21.7733Z" fill="#C76753"/>
<path d="M43.6417 12.9142L44.8675 10.4886C45.0521 10.0932 45.0521 9.59226 44.8147 9.22313C44.5511 8.82772 44.1292 8.59033 43.6809 8.59033H33.1344C28.6784 8.59033 24.4774 11.2006 22.4999 15.0237C20.4432 11.0951 16.216 8.59033 11.8655 8.59033H1.3189C0.870756 8.59033 0.448718 8.82772 0.185141 9.22313C-0.0522444 9.59226 -0.0522444 10.0933 0.132321 10.4886L1.35827 12.914C0.479478 15.0966 0.000488457 18.3579 0.000488457 20.4552C0.000488457 26.994 5.32659 32.3201 11.8654 32.3201C14.9238 32.3201 17.7715 31.16 19.9599 29.0771C19.9636 29.0739 19.9665 29.0697 19.9701 29.0665L21.3205 31.5914C21.5446 32.0382 22.0003 32.3201 22.4998 32.3201C22.9994 32.3201 23.4551 32.0382 23.6791 31.5914L24.9503 29.0491C24.9509 29.0495 25.0392 29.0502 25.0398 29.0507C27.281 31.2127 30.1549 32.3201 33.1343 32.3201C39.6731 32.3201 44.9992 26.994 44.9992 20.4552C44.9993 18.3543 44.5195 15.0946 43.6417 12.9142ZM11.8656 27.0468C8.22698 27.0468 5.27395 24.0938 5.27395 20.4552C5.27395 16.8167 8.22698 13.8636 11.8656 13.8636C15.5041 13.8636 18.4572 16.8167 18.4572 20.4552C18.4572 24.0938 15.5041 27.0468 11.8656 27.0468ZM22.5 28.0536L21.9107 26.8749C21.9136 26.8704 21.9171 26.8667 21.92 26.8622V26.8358C22.1309 26.5194 22.3154 26.203 22.5 25.8866C22.6846 26.203 22.8691 26.5194 23.1063 26.8358C23.1068 26.8366 23.1073 26.8371 23.1077 26.8379L22.5 28.0536ZM33.1345 27.0468C29.4959 27.0468 26.5429 24.0938 26.5429 20.4552C26.5429 16.8167 29.4959 13.8636 33.1345 13.8636C36.773 13.8636 39.7261 16.8167 39.7261 20.4552C39.7261 24.0938 36.773 27.0468 33.1345 27.0468Z" fill="#C76753"/>
<path d="M33.1344 16.5C30.9459 16.5 29.1794 18.2665 29.1794 20.455C29.1794 22.6435 30.9459 24.4099 33.1344 24.4099C35.3229 24.4099 37.0894 22.6435 37.0894 20.455C37.0894 18.2665 35.3228 16.5 33.1344 16.5ZM33.1344 21.7733C32.3961 21.7733 31.8161 21.1933 31.8161 20.455C31.8161 19.7166 32.3961 19.1366 33.1344 19.1366C33.8728 19.1366 34.4527 19.7166 34.4527 20.455C34.4527 21.1933 33.8727 21.7733 33.1344 21.7733Z" fill="#C76753"/>
</svg>
